<?xml version="1.0" encoding="utf-8"?>
<!-- Generator: Adobe Illustrator 15.0.0, SVG Export Plug-In . SVG Version: 6.00 Build 0)  -->
<!DOCTYPE svg PUBLIC "-//W3C//DTD SVG 1.1//EN" "http://www.w3.org/Graphics/SVG/1.1/DTD/svg11.dtd">
<svg version="1.1" id="Layer_1" xmlns="http://www.w3.org/2000/svg" xmlns:xlink="http://www.w3.org/1999/xlink" x="0px" y="0px"
	 width="415px" height="65px" viewBox="0 0 415 65" enable-background="new 0 0 415 65" xml:space="preserve">
<g>
	<path fill="#F4F4F4" stroke="#F4F4F4" stroke-miterlimit="10" d="M40.231,14.45c2.907,9.79,5.966,19.58,8.873,30.746h0.153
		c2.906-11.166,5.965-21.261,8.872-31.205l4.13,0.611l-11.32,36.253h-4.436c-2.906-9.637-5.813-19.274-8.566-29.982h-0.153
		c-2.906,10.708-5.813,20.345-8.719,29.982h-4.436L13.92,15.061l4.742-1.071c2.906,9.943,5.659,20.04,8.566,31.206h0.154
		c2.754-11.166,5.813-20.957,8.719-30.746H40.231L40.231,14.45z"/>
	<path fill="#F4F4F4" stroke="#F4F4F4" stroke-miterlimit="10" d="M82.144,20.11c-1.835-1.225-4.13-2.601-6.271-2.601
		c-3.671,0-5.66,2.142-5.66,4.896c0,2.6,2.294,4.59,6.883,7.954c5.048,3.67,7.954,6.883,7.954,11.625
		c0,5.813-5.507,9.484-11.32,9.484c-3.518,0-7.648-1.225-10.249-3.824l2.294-3.061c2.142,1.529,4.436,3.213,7.954,3.213
		s6.272-1.99,6.272-5.967c0-4.588-5.507-7.496-8.414-9.636c-3.06-2.295-6.425-4.589-6.425-9.637c0-4.895,4.742-8.566,10.402-8.566
		c3.824,0,6.884,1.377,9.025,3.672L82.144,20.11z"/>
	<path fill="#F4F4F4" stroke="#F4F4F4" stroke-miterlimit="10" d="M95.299,14.45v22.027c0,7.494,2.754,11.473,9.331,11.473
		c6.731,0,9.026-5.355,9.026-10.555V14.45h4.742v22.945c0,8.107-5.048,13.92-13.768,13.92c-10.249,0-14.378-5.355-14.378-14.686
		V14.45H95.299L95.299,14.45z"/>
	<path fill="#F4F4F4" stroke="#F4F4F4" stroke-miterlimit="10" d="M166.429,20.569c-1.683-1.377-5.66-3.213-9.484-3.213
		c-9.026,0-14.226,6.426-14.226,14.99c0,9.179,6.272,15.298,14.226,15.298c3.977,0,7.036-1.225,9.178-2.754l1.989,3.059
		c-2.447,1.682-6.731,3.365-11.472,3.365c-13.002,0-19.581-8.871-19.581-18.968c0-9.178,7.19-18.662,20.192-18.662
		c5.201,0,8.872,1.836,11.167,3.672L166.429,20.569z"/>
	<path fill="#F4F4F4" stroke="#F4F4F4" stroke-miterlimit="10" d="M169.641,37.547c0-8.412,6.272-13.308,12.85-13.308
		s12.85,4.896,12.85,13.308c0,8.107-5.201,13.92-12.85,13.92C174.842,51.469,169.641,45.502,169.641,37.547z M174.689,37.547
		c0,4.896,1.683,10.555,7.801,10.555c6.118,0,7.801-5.66,7.801-10.555c0-4.742-1.989-9.942-7.801-9.942
		C176.525,27.452,174.689,32.806,174.689,37.547z"/>
	<path fill="#F4F4F4" stroke="#F4F4F4" stroke-miterlimit="10" d="M204.518,28.064c2.447-2.601,6.118-3.825,8.872-3.825
		c5.965,0,9.178,3.366,9.178,9.943v16.674h-4.742V35.1c0-4.894-2.141-7.495-6.271-7.495c-3.671,0-7.036,2.601-7.036,7.495v15.756
		h-4.589V24.851h4.589V28.064z"/>
	<path fill="#F4F4F4" stroke="#F4F4F4" stroke-miterlimit="10" d="M233.582,28.064c2.447-2.601,6.118-3.825,8.872-3.825
		c5.965,0,9.178,3.366,9.178,9.943v16.674h-4.742V35.1c0-4.894-2.142-7.495-6.271-7.495c-3.671,0-7.036,2.601-7.036,7.495v15.756
		h-4.59V24.851h4.59V28.064z"/>
	<path fill="#F4F4F4" stroke="#F4F4F4" stroke-miterlimit="10" d="M261.116,38.16c0,5.201,3.67,9.943,8.718,9.943
		c2.447,0,5.354-0.92,7.19-2.295l1.376,2.6c-2.754,1.988-5.966,3.061-8.566,3.061c-8.106,0-13.461-5.049-13.461-14.074
		c0-9.025,6.425-13.154,12.237-13.154c7.953,0,10.555,7.188,10.096,13.919H261.116z M274.271,34.947
		c0-3.977-1.682-7.496-5.813-7.496c-5.047,0-6.883,4.131-7.189,7.496H274.271z"/>
	<path fill="#F4F4F4" stroke="#F4F4F4" stroke-miterlimit="10" d="M303.028,48.715c-2.6,1.836-5.66,2.754-7.801,2.754
		c-12.238,0-13.92-10.098-13.92-13.615c0-6.424,4.283-13.613,14.072-13.613c2.601,0,5.048,0.611,6.884,2.141l-1.53,2.601
		c-1.529-0.765-3.365-1.376-5.354-1.376c-4.283,0-9.025,2.754-9.025,9.943c0,5.354,2.754,10.555,9.025,10.555
		c2.295,0,4.283-0.613,6.271-1.836L303.028,48.715z"/>
	<path fill="#F4F4F4" stroke="#F4F4F4" stroke-miterlimit="10" d="M312.513,24.852h6.73v2.754h-6.73v14.683
		c0,3.672,0.765,5.814,3.518,5.814c1.683,0,2.754-0.459,3.519-0.92l1.07,2.602c-1.683,1.07-3.518,1.682-5.354,1.682
		c-5.201,0-7.648-3.059-7.648-8.26V27.452h-3.671v-2.601h3.671V18.58l4.742-1.53v7.802L312.513,24.852L312.513,24.852z"/>
	<path fill="#F4F4F4" stroke="#F4F4F4" stroke-miterlimit="10" d="M322.762,16.286c0-1.224,1.07-2.754,2.906-2.754
		c1.835,0,2.906,1.53,2.906,2.754c0,1.377-0.611,3.212-2.906,3.212C323.373,19.344,322.762,17.663,322.762,16.286z M327.962,24.852
		v26.003h-4.742V24.852H327.962z"/>
	<path fill="#F4F4F4" stroke="#F4F4F4" stroke-miterlimit="10" d="M332.704,37.547c0-8.412,6.272-13.308,12.85-13.308
		s12.849,4.896,12.849,13.308c0,8.107-5.201,13.92-12.849,13.92C337.752,51.469,332.704,45.502,332.704,37.547z M337.752,37.547
		c0,4.896,1.683,10.555,7.802,10.555c6.118,0,7.801-5.66,7.801-10.555c0-4.742-1.988-9.942-7.801-9.942
		C339.588,27.452,337.752,32.806,337.752,37.547z"/>
	<path fill="#F4F4F4" stroke="#F4F4F4" stroke-miterlimit="10" d="M367.428,28.064c2.447-2.601,6.119-3.825,8.873-3.825
		c5.965,0,9.177,3.366,9.177,9.943v16.674h-4.741V35.1c0-4.894-2.142-7.495-6.271-7.495c-3.671,0-7.037,2.601-7.037,7.495v15.756
		h-4.741V24.851h4.589v3.212L367.428,28.064L367.428,28.064z"/>
	<path fill="#F4F4F4" stroke="#F4F4F4" stroke-miterlimit="10" d="M404.14,28.982c-1.836-1.224-3.365-1.683-4.741-1.683
		c-1.683,0-3.825,0.766-3.825,2.906c0,2.143,2.447,3.212,5.354,5.507c3.365,2.6,5.506,4.742,5.506,8.26
		c0,4.436-4.282,7.344-9.024,7.344c-2.906,0-6.271-1.225-7.954-3.213l2.295-2.602c1.529,1.377,3.518,2.602,5.66,2.602
		c2.142,0,4.436-1.07,4.436-3.672c0-3.059-2.754-4.283-5.201-6.119c-2.906-2.141-5.507-3.822-5.507-7.494
		c0-4.13,3.978-6.73,8.566-6.73c2.601,0,5.048,1.07,6.425,2.447L404.14,28.982z"/>
</g>
</svg>
