<?xml version="1.0" encoding="utf-8"?>
<!-- Generator: Adobe Illustrator 19.1.0, SVG Export Plug-In . SVG Version: 6.00 Build 0)  -->
<svg version="1.1" id="Layer_1" xmlns="http://www.w3.org/2000/svg" xmlns:xlink="http://www.w3.org/1999/xlink" x="0px" y="0px"
	 viewBox="0 0 42 46.6" enable-background="new 0 0 42 46.6" xml:space="preserve">
<g>
	<path fill="#68737A" d="M26.6,38.5l-5.4,3.8l-5.4-3.8C12,35.9,8.7,33.6,7,30.2c1.4,6.4,7.7,8.8,14.2,13.9
		C27.8,39,34,36.6,35.5,30.2C33.7,33.6,30.4,35.9,26.6,38.5z"/>
	<path fill="#A90533" d="M6.2,7.2v0.7C6.6,8,6.7,8.1,6.8,8.8v15.5c0,8.6,7,10.9,14.4,16.7c7.4-5.8,14.4-8.1,14.4-16.7V8.6
		c0.1-0.5,0.2-0.6,0.6-0.7V7.2H6.2z"/>
	<g>
		<g>
			<g>
				<path fill="#FFFFFF" d="M24.1,32.4c0,0,1.2-0.5,1.9-2.5c0.6,1.2,0.4,2.4,0.4,2.4C25.9,32.5,24.1,32.4,24.1,32.4z"/>
				<path fill="#FFFFFF" d="M30.6,21.1c0,0,0.7,4-1.9,4.1c-2.5,0.1-3.7-3.6-3.7-3.6s0.6,7.3,4.1,6.8C33.1,27.9,30.6,21.1,30.6,21.1z
					"/>
			</g>
		</g>
		<path fill="#FFFFFF" d="M11.6,31.4C11.6,31.4,11.6,31.4,11.6,31.4c2.9-0.7,5.2-4.1,5.8-5.4l0.4-0.9l0.3,0.9c0,0.1,0.3,1.1,0.3,2.4
			c0,0.1,0,0.3,0,0.5c1,0,1.7-0.2,2.2-0.6c0.6-0.7,0.8-1.9,0.6-3.8c-0.1-0.9-0.5-2.4-0.8-3.7c-0.2-0.7-0.3-1.3-0.4-1.7
			c-0.6-2.8,0.1-4.6,0.8-5.5c0.1-0.2,0.2-0.3,0.3-0.4c-2,0.7-3.7,1.7-5.5,3.5l1.2,1.4l0.5-0.5c0.5,1.8,0.1,3.4,0.1,3.4
			c-0.6-1-1.4-1.8-1.4-1.8l0.3-0.6l-1.1-1.3l-0.1-0.1c-1.4,1.9-1.8,3.4-1.8,3.4l1,0.9l0.6,0.5l0.2-0.5c1,1.9,0.1,3.8,0.1,3.8
			c-0.2-0.7-0.9-1.6-0.9-1.6l0.3-0.9l-1.4-1.3c-1.5,4.7-3.5,6.2-3.5,6.2s2.2-0.4,3.4-0.8C13.1,26.7,13,29.2,11.6,31.4z"/>
		<path fill="#FFFFFF" d="M33.4,14.6l-3.4,0.1c0,0.4-0.1,0.8-0.2,1.2c0.3,1.4,0.1,2.2,0.1,2.2c-0.6-1.3-1-1.7-1-1.7
			c-3.2-1.4-4.9,1.8-4.8,3.8c0.2,1.7,0.8,3.9,1.2,7.4c0.4,3-1.1,4.2-2.8,4.5c0,0-0.1,0-0.1,0c0,0,0,0,0,0c-0.3,0-0.6,0.1-0.9,0
			c0,0,0,0,0,0c0,0-0.1,0-0.1,0c-0.1,0-0.3,0-0.4,0c-1.3-0.2-4.3-0.7-7.4-0.8c1.8-1.1,3.2-2.9,4-4.2c0,0.4,0.1,0.8,0.1,1.3
			c0,0.2,0,0.5,0,0.8l0,0.4l0.4,0c1.4,0.1,2.4-0.1,3.1-0.8c0.8-0.8,1.1-2.2,0.8-4.4c-0.1-1-0.5-2.4-0.8-3.7
			c-0.2-0.7-0.3-1.3-0.4-1.7c-0.5-2.6,0.1-4.1,0.7-5c0.5-0.7,1.1-1.2,1.8-1.4c0,0,0,0,0,0l1.2-3.6h0.4L24,12.4
			c0.2,0,0.4-0.1,0.6-0.1l1-3.2h0.4l-0.7,3.1c1.1-0.1,2.2-0.2,3.5-0.3c0.2,0.1,0.4,0.3,0.6,0.6l3.3-1l0.1,0.4l-3.2,1.2
			c0,0.1,0.1,0.1,0.1,0.2l3.5-0.4l0.1,0.4l-3.4,0.7c0,0.1,0,0.1,0,0.2l3.5,0.1L33.4,14.6z M23.4,16.2c0.7-0.5,1.9-0.9,3-0.8
			c0.3,0,0.5-0.1,0.2-0.2c-0.8-0.4-2.8-0.3-3.5,0.2c-1.1,0.7-0.9,2.1-0.9,2.1C22.5,17.1,22.8,16.5,23.4,16.2z"/>
	</g>
</g>
</svg>
