<?xml version="1.0" encoding="utf-8"?>
<!-- Generator: Adobe Illustrator 15.0.0, SVG Export Plug-In . SVG Version: 6.00 Build 0)  -->
<!DOCTYPE svg PUBLIC "-//W3C//DTD SVG 1.1//EN" "http://www.w3.org/Graphics/SVG/1.1/DTD/svg11.dtd">
<svg version="1.1" id="Layer_1" xmlns="http://www.w3.org/2000/svg" xmlns:xlink="http://www.w3.org/1999/xlink" x="0px" y="0px"
	 width="612px" height="792px" viewBox="0 0 612 792" enable-background="new 0 0 612 792" xml:space="preserve">
<g>
	<path fill="#68737A" d="M347.707,417.309l-39.842,28.036l-39.842-28.036c-28.037-19.184-52.384-36.152-64.927-61.238
		c10.329,47.22,56.811,64.927,104.769,102.556c48.695-37.629,94.439-55.336,105.507-102.556
		C400.092,381.156,375.744,398.125,347.707,417.309z"/>
	<path fill="#A90533" d="M197.194,186.374v5.165c2.952,0.738,3.689,1.476,4.427,6.641v114.36
		c0,63.452,51.646,80.421,106.244,123.214c54.598-42.793,106.244-59.763,106.244-123.214V196.703
		c0.738-3.688,1.476-4.427,4.427-5.165v-5.165H197.194z"/>
	<g>
		<g>
			<g>
				<path fill="#FFFFFF" d="M329.262,372.302c0,0,8.854-3.689,14.019-18.445c4.427,8.854,2.951,17.707,2.951,17.707
					C342.543,373.04,329.262,372.302,329.262,372.302z"/>
				<path fill="#FFFFFF" d="M377.219,288.93c0,0,5.165,29.512-14.018,30.25c-18.445,0.738-27.299-26.561-27.299-26.561
					s4.427,53.86,30.25,50.171C395.664,339.101,377.219,288.93,377.219,288.93z"/>
			</g>
		</g>
		<path fill="#FFFFFF" d="M237.036,364.924L237.036,364.924c21.396-5.165,38.366-30.25,42.793-39.842l2.951-6.64l2.213,6.64
			c0,0.737,2.213,8.116,2.213,17.708c0,0.737,0,2.213,0,3.688c7.378,0,12.543-1.476,16.232-4.427
			c4.427-5.164,5.902-14.019,4.427-28.037c-0.738-6.641-3.689-17.708-5.902-27.299c-1.476-5.165-2.213-9.592-2.951-12.543
			c-4.427-20.659,0.738-33.939,5.902-40.58c0.738-1.476,1.476-2.213,2.213-2.951c-14.756,5.165-27.298,12.543-40.579,25.823
			l8.854,10.33l3.689-3.689c3.689,13.281,0.738,25.086,0.738,25.086c-4.427-7.378-10.329-13.281-10.329-13.281l2.213-4.427
			l-8.115-9.592l-0.738-0.738c-10.329,14.019-13.281,25.085-13.281,25.085l7.378,6.641l4.427,3.689l1.476-3.689
			c7.378,14.018,0.738,28.037,0.738,28.037c-1.476-5.165-6.641-11.806-6.641-11.806l2.213-6.639l-10.33-9.592
			c-11.067,34.677-25.823,45.744-25.823,45.744s16.231-2.951,25.085-5.902C248.103,330.246,247.365,348.692,237.036,364.924z"/>
		<path fill="#FFFFFF" d="M397.878,240.972l-25.086,0.738c0,2.952-0.737,5.903-1.476,8.854c2.214,10.329,0.738,16.232,0.738,16.232
			c-4.427-9.592-7.378-12.543-7.378-12.543c-23.61-10.329-36.153,13.281-35.415,28.037c1.476,12.543,5.902,28.774,8.854,54.599
			c2.951,22.134-8.115,30.987-20.658,33.2h-0.738l0,0c-2.214,0-4.427,0.738-6.64,0l0,0h-0.738c-0.738,0-2.214,0-2.951,0
			c-9.591-1.476-31.726-5.164-54.598-5.902c13.28-8.115,23.61-21.396,29.512-30.987c0,2.951,0.738,5.902,0.738,9.592
			c0,1.475,0,3.688,0,5.902v2.95h2.952c10.329,0.738,17.707-0.737,22.872-5.902c5.902-5.902,8.116-16.231,5.902-32.463
			c-0.738-7.378-3.688-17.708-5.902-27.299c-1.476-5.165-2.213-9.592-2.951-12.543c-3.689-19.183,0.738-30.25,5.165-36.89
			c3.688-5.165,8.115-8.854,13.28-10.33l0,0l8.854-26.562h2.951l-6.641,25.086c1.477,0,2.952-0.738,4.427-0.738l7.379-23.61h2.951
			l-5.165,22.872c8.116-0.738,16.231-1.476,25.824-2.213c1.475,0.737,2.95,2.213,4.427,4.427l24.347-7.378l0.738,2.951
			l-23.609,8.854c0,0.738,0.737,0.738,0.737,1.476l25.823-2.951l0.737,2.951l-25.085,5.165c0,0.738,0,0.738,0,1.475l25.823,0.738
			V240.972z M324.098,252.777c5.164-3.689,14.018-6.64,22.134-5.902c2.213,0,3.689-0.738,1.476-1.476
			c-5.902-2.951-20.659-2.213-25.823,1.476c-8.116,5.165-6.641,15.494-6.641,15.494C317.457,259.417,319.671,254.99,324.098,252.777
			z"/>
	</g>
</g>
</svg>
