<?xml version="1.0" encoding="utf-8"?>
<!-- Generator: Adobe Illustrator 15.0.0, SVG Export Plug-In . SVG Version: 6.00 Build 0)  -->
<!DOCTYPE svg PUBLIC "-//W3C//DTD SVG 1.1//EN" "http://www.w3.org/Graphics/SVG/1.1/DTD/svg11.dtd">
<svg version="1.1" id="Layer_1" xmlns="http://www.w3.org/2000/svg" xmlns:xlink="http://www.w3.org/1999/xlink" x="0px" y="0px"
	 width="612px" height="792px" viewBox="0 0 612 792" enable-background="new 0 0 612 792" xml:space="preserve">
<g>
	<path fill="#68737A" d="M368.484,535.813l-58.754,41.346l-58.754-41.346c-41.346-28.289-77.25-53.313-95.747-90.307
		c15.232,69.634,83.779,95.747,154.501,151.237c71.811-55.49,139.269-81.604,155.59-151.237
		C445.735,482.499,409.83,507.523,368.484,535.813z"/>
	<path fill="#A90533" d="M146.525,195.257v7.616c4.353,1.088,5.44,2.176,6.529,9.792v168.646
		c0,93.571,76.163,118.596,156.677,181.702c80.515-63.106,156.678-88.131,156.678-181.702V210.489
		c1.088-5.44,2.176-6.528,6.527-7.616v-7.616H146.525z"/>
	<g>
		<g>
			<g>
				<path fill="#FFFFFF" d="M341.284,469.442c0,0,13.056-5.44,20.673-27.201c6.527,13.057,4.352,26.112,4.352,26.112
					C360.869,470.53,341.284,469.442,341.284,469.442z"/>
				<path fill="#FFFFFF" d="M412.006,346.494c0,0,7.616,43.521-20.672,44.609c-27.201,1.088-40.258-39.169-40.258-39.169
					s6.528,79.426,44.609,73.987C439.207,420.48,412.006,346.494,412.006,346.494z"/>
			</g>
		</g>
		<path fill="#FFFFFF" d="M205.279,458.562L205.279,458.562c31.553-7.616,56.578-44.609,63.106-58.754l4.352-9.792l3.264,9.792
			c0,1.088,3.264,11.969,3.264,26.113c0,1.088,0,3.264,0,5.439c10.88,0,18.497-2.176,23.937-6.527
			c6.528-7.616,8.704-20.673,6.528-41.346c-1.088-9.793-5.44-26.113-8.704-40.257c-2.176-7.616-3.264-14.145-4.352-18.497
			c-6.528-30.465,1.088-50.05,8.705-59.842c1.088-2.176,2.176-3.264,3.264-4.352c-21.761,7.616-40.257,18.497-59.842,38.082
			l13.056,15.232l5.44-5.44c5.44,19.585,1.088,36.994,1.088,36.994c-6.528-10.881-15.232-19.585-15.232-19.585l3.264-6.528
			l-11.968-14.145l-1.088-1.088c-15.232,20.673-19.585,36.993-19.585,36.993l10.881,9.792l6.528,5.44l2.176-5.44
			c10.88,20.672,1.088,41.345,1.088,41.345c-2.176-7.616-9.792-17.409-9.792-17.409l3.264-9.791l-15.232-14.145
			c-16.32,51.137-38.081,67.458-38.081,67.458s23.937-4.353,36.993-8.704C221.6,407.424,220.512,434.625,205.279,458.562z"/>
		<path fill="#FFFFFF" d="M442.471,275.771l-36.993,1.088c0,4.353-1.088,8.705-2.176,13.057c3.264,15.232,1.088,23.937,1.088,23.937
			c-6.527-14.145-10.88-18.497-10.88-18.497c-34.817-15.232-53.314,19.584-52.226,41.345c2.176,18.497,8.703,42.433,13.056,80.515
			c4.353,32.641-11.968,45.697-30.465,48.961h-1.088l0,0c-3.265,0-6.528,1.088-9.792,0l0,0h-1.089c-1.088,0-3.264,0-4.352,0
			c-14.145-2.176-46.786-7.616-80.515-8.704c19.584-11.968,34.817-31.553,43.521-45.697c0,4.353,1.088,8.704,1.088,14.145
			c0,2.176,0,5.439,0,8.704v4.352h4.353c15.232,1.089,26.112-1.088,33.729-8.704c8.704-8.704,11.969-23.937,8.704-47.873
			c-1.088-10.881-5.439-26.113-8.704-40.257c-2.176-7.617-3.264-14.145-4.352-18.497c-5.44-28.289,1.088-44.609,7.616-54.401
			c5.439-7.617,11.968-13.057,19.585-15.232l0,0l13.056-39.17h4.353l-9.793,36.994c2.177,0,4.353-1.088,6.528-1.088l10.881-34.817
			h4.353l-7.617,33.729c11.969-1.088,23.937-2.176,38.082-3.264c2.176,1.088,4.352,3.264,6.528,6.528l35.904-10.88l1.088,4.352
			l-34.816,13.057c0,1.088,1.088,1.088,1.088,2.176l38.081-4.352l1.088,4.352l-36.993,7.617c0,1.088,0,1.088,0,2.176l38.081,1.088
			V275.771z M333.668,293.18c7.616-5.44,20.672-9.792,32.641-8.704c3.264,0,5.44-1.088,2.176-2.176
			c-8.704-4.352-30.465-3.264-38.081,2.176c-11.969,7.616-9.793,22.849-9.793,22.849C323.875,302.973,327.14,296.444,333.668,293.18
			z"/>
	</g>
</g>
</svg>
