<?xml version="1.0" encoding="utf-8"?>
<!-- Generator: Adobe Illustrator 15.0.0, SVG Export Plug-In . SVG Version: 6.00 Build 0)  -->
<!DOCTYPE svg PUBLIC "-//W3C//DTD SVG 1.1//EN" "http://www.w3.org/Graphics/SVG/1.1/DTD/svg11.dtd">
<svg version="1.1" id="Layer_1" xmlns="http://www.w3.org/2000/svg" xmlns:xlink="http://www.w3.org/1999/xlink" x="0px" y="0px"
	 width="612px" height="65px" viewBox="0 355.5 612 65" enable-background="new 0 355.5 612 65" xml:space="preserve">
<g>
	<path fill="#F4F4F4" stroke="#F4F4F4" stroke-miterlimit="10" d="M57.749,362.501c4.286,14.437,8.798,28.874,13.084,45.341h0.226
		c4.286-16.467,8.797-31.355,13.083-46.018l6.091,0.902l-16.693,53.462h-6.542c-4.286-14.212-8.572-28.423-12.633-44.214h-0.226
		c-4.286,15.791-8.572,30.002-12.858,44.214h-6.542l-15.791-52.786l6.993-1.579c4.286,14.663,8.346,29.551,12.632,46.018H38.8
		c4.061-16.467,8.572-30.904,12.858-45.341H57.749z"/>
	<path fill="#F4F4F4" stroke="#F4F4F4" stroke-miterlimit="10" d="M119.558,370.848c-2.707-1.805-6.091-3.835-9.249-3.835
		c-5.414,0-8.347,3.158-8.347,7.219c0,3.835,3.384,6.768,10.151,11.73c7.444,5.414,11.73,10.151,11.73,17.144
		c0,8.572-8.121,13.986-16.693,13.986c-5.188,0-11.279-1.805-15.114-5.64l3.383-4.512c3.158,2.256,6.542,4.737,11.73,4.737
		c5.188,0,9.249-2.933,9.249-8.798c0-6.767-8.121-11.053-12.407-14.211c-4.512-3.383-9.475-6.767-9.475-14.211
		c0-7.219,6.993-12.632,15.34-12.632c5.639,0,10.151,2.03,13.309,5.414L119.558,370.848z"/>
	<path fill="#F4F4F4" stroke="#F4F4F4" stroke-miterlimit="10" d="M138.958,362.501v32.483c0,11.053,4.061,16.918,13.76,16.918
		c9.926,0,13.31-7.896,13.31-15.565v-33.836h6.993v33.836c0,11.956-7.444,20.528-20.303,20.528
		c-15.114,0-21.204-7.896-21.204-21.656v-32.709H138.958z"/>
	<path fill="#F4F4F4" stroke="#F4F4F4" stroke-miterlimit="10" d="M243.853,371.524c-2.481-2.03-8.347-4.737-13.986-4.737
		c-13.31,0-20.979,9.475-20.979,22.107c0,13.535,9.249,22.558,20.979,22.558c5.865,0,10.376-1.805,13.535-4.061l2.933,4.512
		c-3.609,2.481-9.926,4.963-16.918,4.963c-19.174,0-28.875-13.084-28.875-27.972c0-13.535,10.603-27.521,29.777-27.521
		c7.669,0,13.083,2.707,16.467,5.414L243.853,371.524z"/>
	<path fill="#F4F4F4" stroke="#F4F4F4" stroke-miterlimit="10" d="M248.59,396.564c0-12.407,9.249-19.626,18.949-19.626
		c9.7,0,18.949,7.219,18.949,19.626c0,11.955-7.67,20.527-18.949,20.527C256.259,417.092,248.59,408.294,248.59,396.564z
		 M256.034,396.564c0,7.218,2.481,15.564,11.504,15.564c9.023,0,11.504-8.347,11.504-15.564c0-6.994-2.933-14.663-11.504-14.663
		C258.741,381.676,256.034,389.571,256.034,396.564z"/>
	<path fill="#F4F4F4" stroke="#F4F4F4" stroke-miterlimit="10" d="M300.022,382.578c3.609-3.835,9.023-5.64,13.083-5.64
		c8.798,0,13.535,4.963,13.535,14.663v24.588h-6.993v-23.235c0-7.218-3.158-11.053-9.249-11.053
		c-5.414,0-10.376,3.835-10.376,11.053v23.235h-6.767v-38.349h6.767V382.578z"/>
	<path fill="#F4F4F4" stroke="#F4F4F4" stroke-miterlimit="10" d="M342.883,382.578c3.609-3.835,9.022-5.64,13.083-5.64
		c8.798,0,13.535,4.963,13.535,14.663v24.588h-6.993v-23.235c0-7.218-3.158-11.053-9.249-11.053
		c-5.413,0-10.376,3.835-10.376,11.053v23.235h-6.768v-38.349h6.768V382.578z"/>
	<path fill="#F4F4F4" stroke="#F4F4F4" stroke-miterlimit="10" d="M383.487,397.466c0,7.67,5.413,14.663,12.857,14.663
		c3.609,0,7.896-1.354,10.603-3.384l2.03,3.835c-4.061,2.933-8.798,4.512-12.633,4.512c-11.955,0-19.851-7.444-19.851-20.754
		c0-13.309,9.475-19.399,18.046-19.399c11.73,0,15.565,10.602,14.889,20.527H383.487z M402.887,392.729
		c0-5.865-2.481-11.053-8.572-11.053c-7.443,0-10.15,6.09-10.602,11.053H402.887z"/>
	<path fill="#F4F4F4" stroke="#F4F4F4" stroke-miterlimit="10" d="M445.296,413.031c-3.835,2.707-8.347,4.061-11.505,4.061
		c-18.046,0-20.527-14.889-20.527-20.077c0-9.474,6.316-20.076,20.753-20.076c3.835,0,7.444,0.902,10.151,3.158l-2.256,3.835
		c-2.256-1.128-4.963-2.03-7.896-2.03c-6.316,0-13.309,4.061-13.309,14.663c0,7.895,4.061,15.564,13.309,15.564
		c3.384,0,6.316-0.902,9.249-2.707L445.296,413.031z"/>
	<path fill="#F4F4F4" stroke="#F4F4F4" stroke-miterlimit="10" d="M459.282,377.841h9.926v4.061h-9.926v21.655
		c0,5.414,1.128,8.572,5.188,8.572c2.481,0,4.061-0.677,5.188-1.354l1.579,3.835c-2.481,1.579-5.188,2.481-7.896,2.481
		c-7.67,0-11.279-4.512-11.279-12.182v-23.234h-5.414v-3.835h5.414v-9.249l6.993-2.256v11.505H459.282z"/>
	<path fill="#F4F4F4" stroke="#F4F4F4" stroke-miterlimit="10" d="M474.396,365.208c0-1.804,1.579-4.06,4.286-4.06
		s4.286,2.256,4.286,4.06c0,2.03-0.902,4.737-4.286,4.737C475.298,369.72,474.396,367.238,474.396,365.208z M482.065,377.841v38.349
		h-6.993v-38.349H482.065z"/>
	<path fill="#F4F4F4" stroke="#F4F4F4" stroke-miterlimit="10" d="M489.059,396.564c0-12.407,9.249-19.626,18.949-19.626
		c9.699,0,18.948,7.219,18.948,19.626c0,11.955-7.67,20.527-18.948,20.527C496.503,417.092,489.059,408.294,489.059,396.564z
		 M496.503,396.564c0,7.218,2.481,15.564,11.505,15.564c9.022,0,11.504-8.347,11.504-15.564c0-6.994-2.933-14.663-11.504-14.663
		C499.21,381.676,496.503,389.571,496.503,396.564z"/>
	<path fill="#F4F4F4" stroke="#F4F4F4" stroke-miterlimit="10" d="M540.266,382.578c3.609-3.835,9.023-5.64,13.084-5.64
		c8.797,0,13.534,4.963,13.534,14.663v24.588h-6.993v-23.235c0-7.218-3.158-11.053-9.248-11.053
		c-5.414,0-10.377,3.835-10.377,11.053v23.235h-6.993v-38.349h6.768v4.737H540.266z"/>
	<path fill="#F4F4F4" stroke="#F4F4F4" stroke-miterlimit="10" d="M594.404,383.932c-2.707-1.805-4.962-2.481-6.992-2.481
		c-2.481,0-5.64,1.128-5.64,4.286c0,3.158,3.609,4.737,7.896,8.121c4.963,3.834,8.12,6.993,8.12,12.181
		c0,6.542-6.315,10.828-13.309,10.828c-4.286,0-9.249-1.805-11.73-4.737l3.384-3.835c2.256,2.03,5.188,3.835,8.347,3.835
		s6.542-1.579,6.542-5.414c0-4.512-4.061-6.316-7.67-9.023c-4.286-3.158-8.121-5.639-8.121-11.053c0-6.09,5.865-9.925,12.633-9.925
		c3.835,0,7.443,1.579,9.474,3.609L594.404,383.932z"/>
</g>
</svg>
