<?xml version="1.0" encoding="utf-8"?>
<!-- Generator: Adobe Illustrator 19.1.0, SVG Export Plug-In . SVG Version: 6.00 Build 0)  -->
<svg version="1.1" id="Layer_1" xmlns="http://www.w3.org/2000/svg" xmlns:xlink="http://www.w3.org/1999/xlink" x="0px" y="0px"
	 viewBox="0 0 271.3 44.1" enable-background="new 0 0 271.3 44.1" xml:space="preserve">
<g>
	<path fill="#F4F4F4" d="M25.6,7.2c1.9,6.4,3.9,12.8,5.8,20.1h0.1c1.9-7.3,3.9-13.9,5.8-20.4L40,7.3L32.6,31h-2.9
		c-1.9-6.3-3.8-12.6-5.6-19.6H24c-1.9,7-3.8,13.3-5.7,19.6h-2.9l-7-23.4l3.1-0.7c1.9,6.5,3.7,13.1,5.6,20.4h0.1
		C19,20,21,13.6,22.9,7.2H25.6z"/>
	<path fill="#F4F4F4" d="M53,10.9c-1.2-0.8-2.7-1.7-4.1-1.7c-2.4,0-3.7,1.4-3.7,3.2c0,1.7,1.5,3,4.5,5.2c3.3,2.4,5.2,4.5,5.2,7.6
		c0,3.8-3.6,6.2-7.4,6.2c-2.3,0-5-0.8-6.7-2.5l1.5-2c1.4,1,2.9,2.1,5.2,2.1c2.3,0,4.1-1.3,4.1-3.9c0-3-3.6-4.9-5.5-6.3
		c-2-1.5-4.2-3-4.2-6.3c0-3.2,3.1-5.6,6.8-5.6c2.5,0,4.5,0.9,5.9,2.4L53,10.9z"/>
	<path fill="#F4F4F4" d="M61.6,7.2v14.4c0,4.9,1.8,7.5,6.1,7.5c4.4,0,5.9-3.5,5.9-6.9v-15h3.1v15c0,5.3-3.3,9.1-9,9.1
		c-6.7,0-9.4-3.5-9.4-9.6V7.2H61.6z"/>
	<path fill="#F4F4F4" d="M108.1,11.2c-1.1-0.9-3.7-2.1-6.2-2.1c-5.9,0-9.3,4.2-9.3,9.8c0,6,4.1,10,9.3,10c2.6,0,4.6-0.8,6-1.8l1.3,2
		c-1.6,1.1-4.4,2.2-7.5,2.2c-8.5,0-12.8-5.8-12.8-12.4c0-6,4.7-12.2,13.2-12.2c3.4,0,5.8,1.2,7.3,2.4L108.1,11.2z"/>
	<path fill="#F4F4F4" d="M110.2,22.3c0-5.5,4.1-8.7,8.4-8.7c4.3,0,8.4,3.2,8.4,8.7c0,5.3-3.4,9.1-8.4,9.1
		C113.6,31.4,110.2,27.5,110.2,22.3z M113.5,22.3c0,3.2,1.1,6.9,5.1,6.9c4,0,5.1-3.7,5.1-6.9c0-3.1-1.3-6.5-5.1-6.5
		C114.7,15.7,113.5,19.2,113.5,22.3z"/>
	<path fill="#F4F4F4" d="M133,16.1c1.6-1.7,4-2.5,5.8-2.5c3.9,0,6,2.2,6,6.5V31h-3.1V20.7c0-3.2-1.4-4.9-4.1-4.9
		c-2.4,0-4.6,1.7-4.6,4.9V31H130V14h3V16.1z"/>
	<path fill="#F4F4F4" d="M152,16.1c1.6-1.7,4-2.5,5.8-2.5c3.9,0,6,2.2,6,6.5V31h-3.1V20.7c0-3.2-1.4-4.9-4.1-4.9
		c-2.4,0-4.6,1.7-4.6,4.9V31H149V14h3V16.1z"/>
	<path fill="#F4F4F4" d="M170,22.7c0,3.4,2.4,6.5,5.7,6.5c1.6,0,3.5-0.6,4.7-1.5l0.9,1.7c-1.8,1.3-3.9,2-5.6,2
		c-5.3,0-8.8-3.3-8.8-9.2c0-5.9,4.2-8.6,8-8.6c5.2,0,6.9,4.7,6.6,9.1H170z M178.6,20.6c0-2.6-1.1-4.9-3.8-4.9
		c-3.3,0-4.5,2.7-4.7,4.9H178.6z"/>
	<path fill="#F4F4F4" d="M197.4,29.6c-1.7,1.2-3.7,1.8-5.1,1.8c-8,0-9.1-6.6-9.1-8.9c0-4.2,2.8-8.9,9.2-8.9c1.7,0,3.3,0.4,4.5,1.4
		l-1,1.7c-1-0.5-2.2-0.9-3.5-0.9c-2.8,0-5.9,1.8-5.9,6.5c0,3.5,1.8,6.9,5.9,6.9c1.5,0,2.8-0.4,4.1-1.2L197.4,29.6z"/>
	<path fill="#F4F4F4" d="M203.6,14h4.4v1.8h-4.4v9.6c0,2.4,0.5,3.8,2.3,3.8c1.1,0,1.8-0.3,2.3-0.6l0.7,1.7c-1.1,0.7-2.3,1.1-3.5,1.1
		c-3.4,0-5-2-5-5.4V15.7h-2.4V14h2.4V9.9l3.1-1V14z"/>
	<path fill="#F4F4F4" d="M210.3,8.4c0-0.8,0.7-1.8,1.9-1.8c1.2,0,1.9,1,1.9,1.8c0,0.9-0.4,2.1-1.9,2.1
		C210.7,10.4,210.3,9.3,210.3,8.4z M213.7,14v17h-3.1V14H213.7z"/>
	<path fill="#F4F4F4" d="M216.8,22.3c0-5.5,4.1-8.7,8.4-8.7c4.3,0,8.4,3.2,8.4,8.7c0,5.3-3.4,9.1-8.4,9.1
		C220.1,31.4,216.8,27.5,216.8,22.3z M220.1,22.3c0,3.2,1.1,6.9,5.1,6.9c4,0,5.1-3.7,5.1-6.9c0-3.1-1.3-6.5-5.1-6.5
		C221.3,15.7,220.1,19.2,220.1,22.3z"/>
	<path fill="#F4F4F4" d="M239.5,16.1c1.6-1.7,4-2.5,5.8-2.5c3.9,0,6,2.2,6,6.5V31h-3.1V20.7c0-3.2-1.4-4.9-4.1-4.9
		c-2.4,0-4.6,1.7-4.6,4.9V31h-3.1V14h3V16.1z"/>
	<path fill="#F4F4F4" d="M263.5,16.7c-1.2-0.8-2.2-1.1-3.1-1.1c-1.1,0-2.5,0.5-2.5,1.9c0,1.4,1.6,2.1,3.5,3.6
		c2.2,1.7,3.6,3.1,3.6,5.4c0,2.9-2.8,4.8-5.9,4.8c-1.9,0-4.1-0.8-5.2-2.1l1.5-1.7c1,0.9,2.3,1.7,3.7,1.7c1.4,0,2.9-0.7,2.9-2.4
		c0-2-1.8-2.8-3.4-4c-1.9-1.4-3.6-2.5-3.6-4.9c0-2.7,2.6-4.4,5.6-4.4c1.7,0,3.3,0.7,4.2,1.6L263.5,16.7z"/>
</g>
</svg>
