<?xml version="1.0" encoding="utf-8"?>
<!-- Generator: Adobe Illustrator 19.2.1, SVG Export Plug-In . SVG Version: 6.00 Build 0)  -->
<svg version="1.1" id="Layer_1" xmlns="http://www.w3.org/2000/svg" xmlns:xlink="http://www.w3.org/1999/xlink" x="0px" y="0px"
	 viewBox="0 0 1022.4 317.5" style="enable-background:new 0 0 1022.4 317.5;" xml:space="preserve">
<style type="text/css">
	.st0{fill:#0060A9;}
	.st1{fill:#FFFFFF;}
	.st2{fill:#ED1C2E;}
</style>
<g>
	<circle class="st0" cx="159.5" cy="158.6" r="121.5"/>
	<circle class="st1" cx="159.6" cy="158.6" r="80.1"/>
	<path class="st0" d="M149.4,204.3c0,1.7-1.2,3-2.7,3c-1.5,0-2.7-1.3-2.7-3c0-1.7,1.2-3,2.7-3C148.2,201.3,149.4,202.7,149.4,204.3z
		 M148.9,204.3c0-1.3-1-2.4-2.2-2.4c-1.2,0-2.2,1.1-2.2,2.4c0,1.4,1,2.5,2.2,2.5C147.9,206.8,148.9,205.7,148.9,204.3z M148,204.9
		c-0.1,0.7-0.6,1.2-1.3,1.2c-0.9,0-1.5-0.8-1.5-1.7c0-1,0.6-1.7,1.5-1.7c0.7,0,1.2,0.4,1.3,1.1h-0.6c-0.1-0.4-0.3-0.6-0.7-0.6
		c-0.6,0-0.9,0.6-0.9,1.2c0,0.6,0.3,1.2,0.9,1.2c0.3,0,0.6-0.3,0.7-0.6H148z"/>
	<path class="st0" d="M152.2,203.2H151v-0.8c0.7,0,1.2-0.2,1.4-1h0.7v5.8h-1V203.2z"/>
	<path class="st0" d="M156.9,205c0,1.8-0.5,2.3-1.5,2.3c-0.8,0-1.3-0.4-1.3-1.3h0.9c0,0.2,0,0.5,0.4,0.5c0.5,0,0.5-0.7,0.5-1.1v-0.4
		c-0.2,0.2-0.3,0.4-0.8,0.4c-0.8,0-1.2-0.6-1.2-1.8c0-1.4,0.3-2.2,1.4-2.2c1.2,0,1.5,0.8,1.4,2.2V205z M155.4,202.3
		c-0.5,0-0.4,0.5-0.4,1.3c0,0.4,0,1,0.5,1c0.5,0,0.5-0.6,0.5-1C155.9,202.9,155.9,202.2,155.4,202.3z"/>
	<path class="st0" d="M160.1,205c0,1.8-0.5,2.3-1.5,2.3c-0.8,0-1.3-0.4-1.3-1.3h0.9c0,0.2,0,0.5,0.4,0.5c0.5,0,0.5-0.7,0.5-1.1v-0.4
		c-0.2,0.2-0.3,0.4-0.8,0.4c-0.8,0-1.2-0.6-1.2-1.8c0-1.4,0.3-2.2,1.4-2.2c1.2,0,1.5,0.8,1.4,2.2V205z M158.6,202.3
		c-0.5,0-0.5,0.5-0.5,1.3c0,0.4,0,1,0.5,1c0.5,0,0.5-0.6,0.5-1C159.1,202.9,159.1,202.2,158.6,202.3z"/>
	<path class="st0" d="M160.4,204.6l0.1-3h2.5v0.8h-1.8l-0.1,1.2c0.2-0.3,0.4-0.3,0.8-0.3c1.1,0,1.3,1.1,1.3,2c0,1.3-0.3,2-1.4,2
		c-1.2,0-1.5-0.6-1.5-1.9h0.9c0,0.4,0,1.1,0.5,1.1c0.6,0,0.5-0.6,0.6-1.2c0-0.9-0.2-1.1-0.6-1.1c-0.2,0-0.5,0.2-0.5,0.4H160.4z"/>
	<path class="st0" d="M168.2,205.2c0,0.1,0,0.2,0,0.3c0,1.1-0.4,1.9-1.4,1.9c-1.6,0-1.7-1.1-1.7-2.7v-0.8c0-1.5,0.1-2.6,1.7-2.6
		c0.9,0,1.3,0.5,1.4,1.5c0,0.1,0,0.3,0,0.4h-1c0-0.4,0-1.1-0.5-1.1c-0.8,0-0.7,1-0.7,1.4v1.6c0,0.5,0,1.3,0.7,1.3
		c0.5,0,0.5-1,0.5-1.3H168.2z"/>
	<path class="st0" d="M168.7,207.2v-5.8h1v4.9h1.8v0.8H168.7z"/>
	<path class="st0" d="M175,205.2c0,0.1,0,0.2,0,0.3c0,1.1-0.4,1.9-1.4,1.9c-1.6,0-1.7-1.1-1.7-2.7v-0.8c0-1.5,0.1-2.6,1.7-2.6
		c0.9,0,1.3,0.5,1.4,1.5c0,0.1,0,0.3,0,0.4h-1c0-0.4,0-1.1-0.5-1.1c-0.8,0-0.7,1-0.7,1.4v1.6c0,0.5,0,1.3,0.7,1.3
		c0.5,0,0.5-1,0.5-1.3H175z"/>
	<path class="st0" d="M134.5,214.1l1.2-5.8h1.3l1.2,5.8h-1l-0.3-1.5h-1.1l-0.3,1.5H134.5z M136,211.8h0.8l-0.3-1.6
		c0-0.3-0.1-0.5-0.1-0.8c0-0.1,0-0.3,0-0.4h0c0,0.1,0,0.3,0,0.4c0,0.3,0,0.5-0.1,0.8L136,211.8z"/>
	<path class="st0" d="M138.3,214.1v-5.8h0.9v5.8H138.3z"/>
	<path class="st0" d="M139.9,214.1v-5.8h0.9v5.8H139.9z"/>
	<path class="st0" d="M143.7,211.7v2.5h-1v-5.8h1.8c0.8,0,1.5,0.3,1.5,1.4c0,0.6-0.1,1.3-0.8,1.4v0c0.6,0.1,0.7,0.5,0.7,1
		c0,0.2,0,1.6,0.2,1.8v0.1h-1.1c-0.1-0.4-0.1-1.1-0.1-1.5c0-0.4,0-0.8-0.3-0.9c-0.3-0.1-0.5-0.1-0.8-0.1H143.7z M143.7,210.8h0.8
		c0.3,0,0.6-0.3,0.6-0.8c0-0.6-0.2-0.8-0.6-0.8h-0.7V210.8z"/>
	<path class="st0" d="M146.7,214.1v-4.3h0.9v4.3H146.7z M146.7,209.3v-0.9h0.9v0.9H146.7z"/>
	<path class="st0" d="M149.1,214.6c0,0.1,0,0.2,0.1,0.2c0.1,0,0.2,0.1,0.3,0.1c0.4,0,0.5-0.3,0.5-0.7v-0.5l0,0
		c-0.2,0.4-0.4,0.5-0.8,0.6c-0.8,0-0.9-0.8-0.9-1.4v-1.6c0-1.2,0.4-1.5,0.9-1.5c0.4,0,0.7,0.2,0.8,0.6h0v-0.4h0.9v4.2
		c0,0.9-0.2,1.6-1.5,1.6c-0.6,0-1.1-0.2-1.1-1H149.1z M149.5,210.5c-0.4,0-0.4,0.4-0.4,0.8v1.4c0,0.4,0.1,0.7,0.4,0.7
		c0.3,0,0.4-0.3,0.4-0.8v-1.3C149.9,211.1,149.9,210.5,149.5,210.5z"/>
	<path class="st0" d="M151.4,214.1v-5.8h0.9v1.9h0c0.3-0.5,0.6-0.6,0.8-0.6c0.5,0,0.9,0.3,0.9,1.1v3.3h-0.9v-3c0-0.4,0-0.7-0.4-0.7
		c-0.3,0-0.5,0.3-0.4,0.8v2.9H151.4z"/>
	<path class="st0" d="M155.9,214.2c-0.5,0.1-1.3,0.1-1.3-0.7v-2.9h-0.4v-0.7h0.4v-1.2h0.9v1.2h0.4v0.7h-0.4v2.7
		c0,0.2,0.3,0.2,0.4,0.1V214.2z"/>
	<path class="st0" d="M156.9,212.7c-0.1,0.8,0.2,0.8,0.4,0.8c0.3,0,0.4-0.2,0.4-0.5c0-0.2-0.3-0.4-0.4-0.5l-0.5-0.4
		c-0.4-0.3-0.7-0.7-0.7-1.4c0-0.7,0.5-1.1,1.3-1.1c0.9,0,1.3,0.5,1.3,1.4h-0.9c0-0.5-0.1-0.7-0.4-0.7c-0.2,0-0.4,0.1-0.4,0.4
		c0,0.3,0.2,0.4,0.3,0.5l0.7,0.6c0.2,0.1,0.6,0.6,0.6,0.9c0.1,0.8-0.1,1.5-1.3,1.5c-0.5,0-1.4-0.2-1.3-1.5H156.9z"/>
	<path class="st0" d="M161.5,211.7v2.5h-1v-5.8h1.8c0.8,0,1.5,0.3,1.5,1.4c0,0.6-0.1,1.3-0.8,1.4v0c0.6,0.1,0.7,0.5,0.7,1
		c0,0.2,0,1.6,0.2,1.8v0.1h-1.1c-0.1-0.4-0.1-1.1-0.1-1.5c0-0.4,0-0.8-0.3-0.9c-0.3-0.1-0.5-0.1-0.8-0.1H161.5z M161.5,210.8h0.8
		c0.3,0,0.6-0.3,0.6-0.8c0-0.6-0.2-0.8-0.6-0.8h-0.7V210.8z"/>
	<path class="st0" d="M164.4,211.3c0-1,0.4-1.6,1.3-1.6c1.3,0,1.4,0.7,1.4,1.9v0.6h-1.8v0.6c0,0.6,0.2,0.7,0.5,0.7
		c0.3,0,0.4-0.3,0.4-0.8h0.9c0,1-0.3,1.6-1.2,1.6c-1,0-1.5-0.5-1.4-1.8V211.3z M166.2,211.4V211c0-0.4-0.1-0.6-0.5-0.6
		c-0.4,0-0.4,0.4-0.4,0.8v0.2H166.2z"/>
	<path class="st0" d="M168.3,212.7c-0.1,0.8,0.2,0.8,0.4,0.8c0.3,0,0.4-0.2,0.4-0.5c0-0.2-0.3-0.4-0.4-0.5l-0.5-0.4
		c-0.5-0.3-0.7-0.7-0.7-1.4c0-0.7,0.5-1.1,1.3-1.1c0.9,0,1.3,0.5,1.3,1.4h-0.9c0-0.5-0.1-0.7-0.4-0.7c-0.2,0-0.4,0.1-0.4,0.4
		c0,0.3,0.2,0.4,0.3,0.5l0.7,0.6c0.2,0.1,0.6,0.6,0.6,0.9c0.1,0.8-0.1,1.5-1.3,1.5c-0.5,0-1.4-0.2-1.3-1.5H168.3z"/>
	<path class="st0" d="M170.3,211.3c0-1,0.4-1.6,1.3-1.6c1.3,0,1.4,0.7,1.4,1.9v0.6h-1.8v0.6c0,0.6,0.2,0.7,0.5,0.7
		c0.3,0,0.4-0.3,0.4-0.8h0.9c0,1-0.3,1.6-1.2,1.6c-1,0-1.5-0.5-1.4-1.8V211.3z M172.1,211.4V211c0-0.4-0.1-0.6-0.5-0.6
		c-0.5,0-0.4,0.4-0.4,0.8v0.2H172.1z"/>
	<path class="st0" d="M174.4,210.6L174.4,210.6c0.1-0.3,0.2-0.5,0.4-0.6c0.3-0.2,0.4-0.2,0.6-0.2v1.2c-0.5-0.1-0.9,0.1-0.9,0.7v2.5
		h-0.9v-4.3h0.9V210.6z"/>
	<path class="st0" d="M175.2,209.8h1l0.4,2.4c0.1,0.4,0.1,1.1,0.1,1.3h0c0-0.2,0-0.9,0.1-1.3l0.4-2.4h0.9l-0.9,4.3h-1.1L175.2,209.8
		z"/>
	<path class="st0" d="M178.3,211.3c0-1,0.4-1.6,1.3-1.6c1.3,0,1.4,0.7,1.4,1.9v0.6h-1.8v0.6c0,0.6,0.2,0.7,0.5,0.7
		c0.3,0,0.4-0.3,0.4-0.8h0.9c0,1-0.3,1.6-1.2,1.6c-1,0-1.5-0.5-1.4-1.8V211.3z M180.1,211.4V211c0-0.4-0.1-0.6-0.5-0.6
		c-0.5,0-0.4,0.4-0.4,0.8v0.2H180.1z"/>
	<path class="st0" d="M183.2,213.7L183.2,213.7c-0.2,0.4-0.4,0.6-0.8,0.6c-0.8,0-0.9-0.8-0.9-1.5v-1.6c0-1.2,0.4-1.5,0.9-1.5
		c0.4,0,0.6,0.1,0.8,0.6h0c0-0.1,0-0.3,0-0.4v-1.5h0.9v5.8h-0.9V213.7z M183.2,211.4c0-0.3,0-1-0.4-1c-0.4,0-0.4,0.4-0.4,0.8v1.4
		c0,0.4,0.1,0.7,0.4,0.7c0.3,0,0.4-0.3,0.4-0.8V211.4z"/>
	<path class="st0" d="M159.6,237.1c-43.3,0-78.5-35.2-78.5-78.5c0-43.3,35.2-78.5,78.5-78.5s78.5,35.2,78.5,78.5
		C238.1,201.9,202.9,237.1,159.6,237.1z M159.6,82.1c-42.2,0-76.5,34.3-76.5,76.5c0,42.2,34.3,76.5,76.5,76.5s76.5-34.3,76.5-76.5
		C236.1,116.4,201.8,82.1,159.6,82.1z"/>
	<path class="st2" d="M159.6,285.4c-69.9,0-126.8-56.9-126.8-126.8c0-69.9,56.9-126.8,126.8-126.8c69.9,0,126.8,56.9,126.8,126.8
		C286.3,228.5,229.5,285.4,159.6,285.4z M159.6,33.8c-68.8,0-124.8,56-124.8,124.8c0,68.8,56,124.8,124.8,124.8
		c68.8,0,124.8-56,124.8-124.8C284.4,89.8,228.4,33.8,159.6,33.8z"/>
	<g>
		<g>
			<path class="st2" d="M201.5,198c0,0-0.7-1.2-2.1-4.1c-1.4-2.9,0.8-11.6,0.8-11.6c5.6,5.7,3.5,14.7,3.5,14.7
				c0.8-0.8,7.6-4.6,10-4.5c2.4,0.2,10.4-1,10.4-1c-2.9,5.5-9.9,8.2-13.3,8.5c-3.4,0.4-4.9,0.1-4.9,0.1s-3.8-0.1-4.2,2l-0.7-0.7
				C200.9,201.4,201.9,199.2,201.5,198z"/>
			<path class="st2" d="M210.6,188.3c0,0,0.2-7.6-1.6-10.1c-2.1-2.9-5.2-10.9-5.2-10.9c-3.3,11.5,0.9,16.1,3,20
				c1,1.9-0.1,4.7-0.1,4.7l0.7,0.7c1.5-2.1,3.9-2.1,3.9-2.1c15.4,0.6,18.2-10.4,18.2-10.4S221.2,179.3,210.6,188.3z"/>
			<path class="st2" d="M208.1,159.1c-1.4,3.5-0.7,12.8,2.6,16.6c3.3,3.8,1.3,7.4,1.3,7.4l0.9,1c0,0,0.4-2.1,3.9-3.8
				c3.4-1.7,12.8-4.2,14.9-15.5c0,0-11,2.8-15.7,11.5l-0.3-0.9c0,0,0.1-5.9-3.7-9.8C208.7,162.2,208.1,159.1,208.1,159.1z"/>
			<path class="st2" d="M218.1,170.7l-1.2-1c0,0,2.1-3.8-1.7-7.3c-4.5-4.3-7.8-8.9-6.8-16.7c0,0,5.5,5,8.5,10.5
				c3,5.5,2.5,6.9,2.5,6.9s2.6-8,10.8-15.8c0,0,3.3,9.8-5.5,16C217.9,168.2,218.1,170.7,218.1,170.7z"/>
			<path class="st2" d="M220.3,157.6l-1.2-1.2c0,0,0.5-6.3-5.7-9.4c-6-3-5.3-11.9-5.3-11.9s3.2,3.6,7.6,6.2c3.3,2,5,6.3,5,6.3
				s0.6-10.3,5.8-15.1c0,0,3.7,8.9-1.2,15C221,152.8,220.3,157.6,220.3,157.6z"/>
			<path class="st2" d="M220.1,143l-0.9-0.9c-1-2-3.2-6-7.9-7.2c-4.9-1.3-8-8.6-8-8.6s11,2.2,13.9,7.4c0,0-0.9-2.1-0.5-4.5
				c0.3-2.5,0.5-7.1,2.5-10.4c0,0,2.9,6.2,2.5,10.2C221.3,132.8,220.1,137.4,220.1,143z"/>
			<path class="st2" d="M214.8,128.5c0,0-3-4.1-7.8-5.1c-4.8-0.9-7.1-6.9-7.1-6.9s7.6,0.5,11.8,5.9c0,0-3-8.3-0.4-14.5
				c0,0,3.7,2.9,3.8,9.2C215.2,122,213.9,122.2,214.8,128.5z"/>
			<path class="st2" d="M208.4,117.1c0,0-0.8-12.7-14.9-15.3c0,0,2.6,7.8,7.8,10.2C203.9,113.2,207.9,116.3,208.4,117.1z"/>
		</g>
		<path class="st2" d="M196.5,211.7c3.4-2.4,5.5-2.2,10.6-2.2c5.1,0,8.7-7.2,8.7-7.2s-5,2.3-6.9,1.9c-5.9-1.2-10.5,1.6-10.5,1.6
			c0.7-6.7-2.4-10.9-2.4-10.9s-3.2,7.5-0.5,12.2c2.1,3.6-6.8,13.3-31.5,13.6c-24.6,0.3-29.6,6.4-29.6,6.4l4.4,2.9
			c0,0,6.5-6.3,26.3-6.7C186.8,222.7,193,214.1,196.5,211.7z"/>
	</g>
	<g>
		<g>
			<path class="st2" d="M117.6,198c0,0,0.7-1.2,2.1-4.1c1.4-2.9-0.8-11.6-0.8-11.6c-5.6,5.7-3.5,14.7-3.5,14.7
				c-0.8-0.8-7.6-4.6-10-4.5c-2.4,0.2-10.4-1-10.4-1c2.9,5.5,9.9,8.2,13.3,8.5c3.4,0.4,4.9,0.1,4.9,0.1s3.8-0.1,4.2,2l0.7-0.7
				C118.2,201.4,117.2,199.2,117.6,198z"/>
			<path class="st2" d="M108.5,188.3c0,0-0.2-7.6,1.6-10.1c2.1-2.9,5.2-10.9,5.2-10.9c3.3,11.5-0.9,16.1-3,20
				c-1,1.9,0.1,4.7,0.1,4.7l-0.7,0.7c-1.5-2.1-3.9-2.1-3.9-2.1c-15.4,0.6-18.2-10.4-18.2-10.4S97.9,179.3,108.5,188.3z"/>
			<path class="st2" d="M111,159.1c1.4,3.5,0.7,12.8-2.6,16.6c-3.3,3.8-1.3,7.4-1.3,7.4l-0.9,1c0,0-0.4-2.1-3.9-3.8
				c-3.4-1.7-12.8-4.2-14.9-15.5c0,0,11,2.8,15.7,11.5l0.3-0.9c0,0-0.1-5.9,3.7-9.8C110.4,162.2,111,159.1,111,159.1z"/>
			<path class="st2" d="M101,170.7l1.2-1c0,0-2.1-3.8,1.7-7.3c4.5-4.3,7.8-8.9,6.8-16.7c0,0-5.5,5-8.5,10.5c-3,5.5-2.5,6.9-2.5,6.9
				s-2.6-8-10.8-15.8c0,0-3.3,9.8,5.5,16C101.2,168.2,101,170.7,101,170.7z"/>
			<path class="st2" d="M98.8,157.6l1.2-1.2c0,0-0.5-6.3,5.7-9.4c6-3,5.3-11.9,5.3-11.9s-3.2,3.6-7.6,6.2c-3.3,2-5,6.3-5,6.3
				s-0.6-10.3-5.8-15.1c0,0-3.7,8.9,1.2,15C98.1,152.8,98.8,157.6,98.8,157.6z"/>
			<path class="st2" d="M98.9,143l0.9-0.9c1-2,3.2-6,7.9-7.2c4.9-1.3,8-8.6,8-8.6s-11,2.2-13.9,7.4c0,0,0.9-2.1,0.5-4.5
				c-0.3-2.5-0.5-7.1-2.5-10.4c0,0-2.9,6.2-2.5,10.2C97.8,132.8,99,137.4,98.9,143z"/>
			<path class="st2" d="M104.3,128.5c0,0,3-4.1,7.8-5.1c4.8-0.9,7.1-6.9,7.1-6.9s-7.6,0.5-11.8,5.9c0,0,3-8.3,0.4-14.5
				c0,0-3.7,2.9-3.8,9.2C103.9,122,105.2,122.2,104.3,128.5z"/>
			<path class="st2" d="M110.7,117.1c0,0,0.8-12.7,14.9-15.3c0,0-2.6,7.8-7.8,10.2C115.2,113.2,111.2,116.3,110.7,117.1z"/>
		</g>
		<path class="st2" d="M122.6,211.7c-3.4-2.4-5.5-2.2-10.6-2.2c-5.1,0-8.7-7.2-8.7-7.2s5,2.3,6.9,1.9c5.9-1.2,10.5,1.6,10.5,1.6
			c-0.7-6.7,2.4-10.9,2.4-10.9s3.2,7.5,0.5,12.2c-2.1,3.6,6.8,13.3,31.5,13.6c24.6,0.3,29.6,6.4,29.6,6.4l-4.4,2.9
			c0,0-6.5-6.3-26.3-6.7C132.3,222.7,126.1,214.1,122.6,211.7z"/>
	</g>
	<g>
		<g>
			<path class="st1" d="M104.1,239.5l1.8-3.1c2.5-4.4,6.1-5.2,10.7-2.5c3.6,2.1,6.1,5.5,3,10.9l-6.1,10.7c-3.1,5.4-7.2,5-10.9,2.9
				c-4-2.3-6.3-5.2-3.4-10.3l1.5-2.6l5.5,3.2l-1.9,3.2c-0.6,1-0.8,2,0.4,2.7c1.1,0.6,1.9-0.1,2.5-1l7.6-13.3c0.6-1,0.8-2-0.4-2.7
				c-1.2-0.7-2,0-2.6,1l-2.3,4L104.1,239.5z"/>
			<path class="st1" d="M90,223.3c4.2-4.6,8.2-3.3,11.3-0.5c3.1,2.8,4.8,6.7,0.6,11.3l-8.3,9.2c-4.2,4.6-8.2,3.3-11.3,0.5
				c-3.1-2.8-4.8-6.7-0.6-11.3L90,223.3z M98.2,228.7c0.7-0.8,1.2-1.8,0.2-2.7c-1-0.9-1.9-0.4-2.7,0.5l-10.3,11.3
				c-0.7,0.8-1.2,1.8-0.2,2.7c1,0.9,1.9,0.4,2.7-0.5L98.2,228.7z"/>
			<path class="st1" d="M93.1,215.4l-21.9,16.1l-3.8-5.1L86,212.8l-4.1-5.5l3.3-2.4L93.1,215.4z"/>
			<path class="st1" d="M84.3,203.2L60,215.4l-2.8-5.7l20.6-10.3l-3.1-6.2l3.7-1.8L84.3,203.2z"/>
			<path class="st1" d="M77.8,189.7l-26.1,7.8L48,184.9l4-1.2l1.9,6.5l5.7-1.7l-1.9-6.3l4-1.2l1.9,6.3l8.5-2.5l-1.9-6.5l4-1.2
				L77.8,189.7z"/>
			<path class="st1" d="M71,162.1c0.8,0.6,1.4,1.5,1.7,2.5c0.4,0.9,0.5,1.9,0.6,2.9c0.3,4.1-1.2,6.6-7.4,7.1l-12.3,1
				c-6.2,0.5-8.2-3.1-8.6-7.3c-0.4-5.1,1.4-8.1,6.7-8.6l2.9-0.2l0.5,6.3l-3.8,0.3c-1.1,0.1-2.1,0.5-2,1.9c0.1,1.3,1.2,1.6,2.3,1.5
				l15.2-1.3c1.1-0.1,2.1-0.5,2-1.9c-0.1-1.3-1.2-1.6-2.3-1.5l-3.6,0.3l0.2,2.4l-4.1,0.3l-0.7-8.7L72,158l0.3,3.7L71,162.1z"/>
			<path class="st1" d="M72.4,154l-27.1-2.4l0.6-6.3l27.1,2.4L72.4,154z"/>
			<path class="st1" d="M50.7,123.3l27.1,3.9l-1.7,6.1l-6.6-1.1l-0.9,3.3l6.2,2.8l-1.4,5.1l-24.9-11.7L50.7,123.3z M65.4,131.5
				l-12-2.2l0,0.1l11.4,4.3L65.4,131.5z"/>
			<path class="st1" d="M57.3,116.7l-3.7-1.8l6.7-13.6l3.7,1.8l-2,4l20.7,10.2l-2.8,5.7l-20.7-10.2L57.3,116.7z"/>
			<path class="st1" d="M85.5,112.1L63.6,96l7.8-10.6l3.3,2.4l-4,5.5l4.8,3.5l3.9-5.3l3.3,2.4l-3.9,5.3l7.1,5.2l4-5.5l3.3,2.4
				L85.5,112.1z"/>
		</g>
		<g>
			<path class="st1" d="M147.2,262.2l-0.7,3.6c-1,5.1-4.2,7-9.5,5.9c-4.2-0.8-7.6-3.3-6.4-9.5l2.4-12.3c1.2-6.2,5.3-7.2,9.5-6.3
				c4.6,0.9,7.8,3,6.6,8.8l-0.6,3l-6.3-1.2l0.7-3.7c0.2-1.1,0.1-2.2-1.3-2.5c-1.3-0.3-1.8,0.7-2.1,1.8l-3,15.2
				c-0.2,1.1-0.1,2.2,1.2,2.5c1.4,0.3,1.9-0.7,2.1-1.8l0.9-4.6L147.2,262.2z"/>
			<path class="st1" d="M154.8,273.4l0.1-27.7l6.4,0l-0.1,23.5l7,0l0,4.2L154.8,273.4z"/>
			<path class="st1" d="M188.2,259.1l0.7,3.6c1,5.1-1.2,8-6.6,9.1c-4.2,0.8-8.3-0.2-9.5-6.4l-2.4-12.3c-1.2-6.2,2.2-8.6,6.4-9.5
				c4.6-0.9,8.3-0.2,9.4,5.7l0.6,3l-6.3,1.2l-0.7-3.7c-0.2-1.1-0.8-2.1-2.1-1.8c-1.3,0.3-1.4,1.3-1.2,2.4l3,15.2
				c0.2,1.1,0.8,2.1,2.1,1.8c1.4-0.3,1.5-1.4,1.3-2.5l-0.9-4.6L188.2,259.1z"/>
		</g>
		<g>
			<path class="st1" d="M123.2,256.7c-1.6-0.6-2.5-2.4-1.9-4c0.6-1.6,2.4-2.5,4-1.9c1.6,0.6,2.5,2.4,1.9,4
				C126.6,256.5,124.8,257.4,123.2,256.7z"/>
			<path class="st1" d="M196.5,258.6c-1.6,0.6-3.4-0.2-4-1.9c-0.6-1.6,0.2-3.4,1.9-4c1.6-0.6,3.4,0.2,4,1.9
				C198.9,256.2,198.1,258,196.5,258.6z"/>
		</g>
		<g>
			<path class="st1" d="M102.6,92.3L86.3,70.5l5.1-3.8l13.8,18.5l5.5-4.1l2.5,3.3L102.6,92.3z"/>
			<path class="st1" d="M115.6,83.3l-12.8-23.9l5.6-3l12.8,23.9L115.6,83.3z"/>
			<path class="st1" d="M135.8,63.4l1.1,3.4c1.6,4.8-0.2,8-5.2,9.7c-4,1.3-8.1,0.9-10.1-5l-4-11.7c-2-5.9,1-8.7,5-10.1
				c4.4-1.5,8.1-1.3,10,4.3l1,2.8l-6,2l-1.2-3.5c-0.4-1-1-1.9-2.3-1.5c-1.2,0.4-1.2,1.5-0.9,2.6l4.9,14.5c0.4,1,1,1.9,2.2,1.5
				c1.3-0.4,1.3-1.5,0.9-2.6l-1.4-4.4L135.8,63.4z"/>
			<path class="st1" d="M142.9,72.8l-3.2-27l13-1.6l0.5,4.1l-6.7,0.8l0.7,5.9l6.5-0.8l0.5,4.1l-6.5,0.8l1,8.8l6.7-0.8l0.5,4.1
				L142.9,72.8z"/>
			<path class="st1" d="M161.5,43.9l8.7,0.8l2.2,20.1l0.1,0l1.9-19.7l4.9,0.5l-2.5,27.1l-8.1-0.8l-2.5-23.1l-0.1,0l-2.1,22.6L159,71
				L161.5,43.9z"/>
			<path class="st1" d="M194.1,59.8l1.2-3.6c0.4-1.3,0.3-2.1-0.9-2.5c-1.3-0.4-1.8,0.2-2.3,1.5c-1.4,4.4,7.3,8.7,4.7,16.6
				c-1.6,4.9-5,6.2-10,4.6c-3.8-1.3-7.1-3.8-5.7-8.3l1.6-4.8l6,2l-1.5,4.5c-0.5,1.5-0.2,2.1,0.9,2.5c1,0.3,1.7,0.1,2.2-1.4
				c1.9-5.8-7.2-9-4.5-17.3c1.6-4.7,5.2-5.4,9.9-3.9c4.1,1.3,7,3.9,5.6,8.2l-1.3,4.1L194.1,59.8z"/>
			<path class="st1" d="M198.1,80.3L211,56.4l5.6,3l-12.9,23.9L198.1,80.3z"/>
			<path class="st1" d="M224,63.7l6.9,5.5l-9.2,18l0.1,0l12.4-15.4l3.9,3.1l-17,21.2l-6.4-5.1l10.5-20.7l-0.1,0l-14.2,17.7l-3.9-3.1
				L224,63.7z"/>
			<path class="st1" d="M231.4,106.6c-1-0.1-2-0.5-2.8-1.1c-0.8-0.6-1.5-1.3-2.1-2c-2.6-3.3-2.7-6.1,2.2-10l9.7-7.7
				c4.9-3.9,8.6-2,11.2,1.3c3.2,4,3.4,7.5-0.8,10.9l-2.3,1.8l-3.9-5l3-2.4c0.9-0.7,1.5-1.6,0.6-2.6c-0.8-1-1.9-0.7-2.7,0l-11.9,9.5
				c-0.9,0.7-1.5,1.6-0.6,2.6c0.8,1,1.9,0.7,2.7,0l2.8-2.3l-1.5-1.9l3.2-2.6l5.4,6.8l-10.7,8.5l-2.3-2.9L231.4,106.6z"/>
		</g>
		<g>
			<path class="st1" d="M254.7,134.8l-3.4,1.2c-4.8,1.6-8-0.2-9.7-5.2c-1.3-4-0.9-8.1,5-10.1l11.7-4c5.9-2,8.7,1,10.1,5
				c1.5,4.4,1.3,8.1-4.3,10l-2.8,1l-2-6l3.5-1.2c1-0.4,1.9-1,1.5-2.3c-0.4-1.2-1.5-1.2-2.6-0.9l-14.5,4.9c-1,0.4-1.9,1-1.5,2.2
				c0.4,1.3,1.5,1.3,2.6,0.9l4.4-1.4L254.7,134.8z"/>
			<path class="st1" d="M254.5,156.2c-6.2,0.7-8.3-2.9-8.8-7.1c-0.5-4.2,0.8-8.2,7-8.8l12.3-1.4c6.2-0.7,8.3,2.9,8.8,7.1
				c0.5,4.2-0.8,8.2-7,8.8L254.5,156.2z M252,146.7c-1.1,0.1-2.1,0.6-1.9,1.9c0.1,1.3,1.2,1.6,2.3,1.4l15.2-1.7
				c1.1-0.1,2.1-0.6,1.9-1.9c-0.1-1.3-1.2-1.6-2.3-1.4L252,146.7z"/>
			<path class="st1" d="M246.8,164.8l0.8-5l26.9,4l-1.4,9.2l-19.5-0.2l0,0.1l18.7,5.5l-1.3,9l-26.9-4l0.8-5.7l23,3.4l0-0.1
				l-22.4-7.1l0.8-5.5l23.5-0.2l0-0.1L246.8,164.8z"/>
			<path class="st1" d="M242.6,186.4l24.9,11l-3.1,7.1c-2,4.6-4.4,7.1-8.7,5.2l-4.5-2c-3.7-1.6-3.9-5.7-2.4-9.1l0.9-2.1l-9.6-4.2
				L242.6,186.4z M253.2,198l-0.4,0.9c-0.9,2,0.2,2.7,3.1,4c2.9,1.3,4.1,1.7,5-0.4l0.4-0.9L253.2,198z"/>
			<path class="st1" d="M251.7,226.6l-24.5-12.3l3.5-5.2l5.9,3.1l1.9-2.8l-5-4.6l3-4.4l20,19L251.7,226.6z M240.3,214.2L251,220
				l0-0.1l-9.4-7.7L240.3,214.2z"/>
			<path class="st1" d="M244.3,236l-6.4,6l-16.5-11.7l-0.1,0.1l13.5,14.4l-3.6,3.4l-18.6-19.8l5.9-5.6l19,13.4l0.1-0.1l-15.5-16.6
				l3.6-3.4L244.3,236z"/>
			<path class="st1" d="M211.3,241l13.3,12.1l-5.3,3.1l-7.5-8.2l-0.1,0l3.4,10.5l-5.3,3.1l-4-17.6l-5-8.6l5.5-3.2L211.3,241z"/>
		</g>
	</g>
	<path class="st2" d="M159.6,237.1c-43.3,0-78.5-35.2-78.5-78.5c0-43.3,35.2-78.5,78.5-78.5s78.5,35.2,78.5,78.5
		C238.1,201.9,202.9,237.1,159.6,237.1z M159.6,82.1c-42.2,0-76.5,34.3-76.5,76.5c0,42.2,34.3,76.5,76.5,76.5s76.5-34.3,76.5-76.5
		C236.1,116.4,201.8,82.1,159.6,82.1z"/>
	<g>
		<path class="st0" d="M192.4,197.8c0.2,0,0.4-0.2,0.4-0.5v-4.8c0-0.3-0.2-0.5-0.4-0.5h-65.7c-0.2,0-0.4,0.2-0.4,0.5v4.8
			c0,0.3,0.2,0.5,0.4,0.5H192.4z"/>
		<g>
			<path class="st0" d="M127.5,122.4c-0.2,0-0.4,0.2-0.4,0.5v2.5c0,0.3,0.2,0.5,0.4,0.5h14.3c0.2,0,0.4-0.2,0.4-0.5v-2.5
				c0-0.3-0.2-0.5-0.4-0.5H127.5z"/>
			<path class="st0" d="M139.4,185.1v-56.5c0-0.3-9.6-0.3-9.6,0c0,0-0.2,57.2,0,56.5H139.4z"/>
			<path class="st0" d="M164.6,185.1v-56.5c0-0.3-9.6-0.3-9.6,0c0,0-0.2,57.2,0,56.5H164.6z"/>
			<path class="st0" d="M189.8,185.1v-56.5c0-0.3-9.6-0.3-9.6,0c0,0-0.2,57.2,0,56.5H189.8z"/>
			<path class="st0" d="M136.1,187.8c4.4,0,6.3,1.3,6.3,2.9l0.1,0.8c0,0.3-0.2,0.5-0.5,0.5h-15.1c-0.3,0-0.5-0.2-0.5-0.5l0.1-0.8
				c0-1.6,1.8-2.9,6.2-2.9H136.1z"/>
		</g>
		<g>
			<path class="st0" d="M152.7,122.4c-0.2,0-0.4,0.2-0.4,0.5v2.5c0,0.3,0.2,0.5,0.4,0.5H167c0.2,0,0.4-0.2,0.4-0.5v-2.5
				c0-0.3-0.2-0.5-0.4-0.5H152.7z"/>
			<path class="st0" d="M161.3,187.8c4.4,0,6.3,1.3,6.3,2.9l0.1,0.8c0,0.3-0.2,0.5-0.5,0.5h-15.1c-0.3,0-0.5-0.2-0.5-0.5l0.1-0.8
				c0-1.6,1.8-2.9,6.2-2.9H161.3z"/>
		</g>
		<g>
			<path class="st0" d="M177.9,122.4c-0.2,0-0.4,0.2-0.4,0.5v2.5c0,0.3,0.2,0.5,0.4,0.5h14.3c0.2,0,0.4-0.2,0.4-0.5v-2.5
				c0-0.3-0.2-0.5-0.4-0.5H177.9z"/>
			<path class="st0" d="M186.6,187.8c4.4,0,6.3,1.3,6.3,2.9l0.1,0.8c0,0.3-0.2,0.5-0.5,0.5h-15.1c-0.3,0-0.5-0.2-0.5-0.5l0.1-0.8
				c0-1.6,1.8-2.9,6.2-2.9H186.6z"/>
		</g>
		<g>
			<path class="st0" d="M193.1,119.2c0-0.3-0.2-0.5-0.6-0.5h-65.2c-0.3,0-0.6,0.2-0.6,0.5v2.8c0,0.3,0.2,0.5,0.6,0.5h65.2
				c0.3,0,0.6-0.2,0.6-0.5V119.2z"/>
			<path class="st0" d="M162.1,95c0-1.6-1.1-2.9-2.5-2.9c-1.4,0-2.5,1.3-2.5,2.9H162.1z"/>
			<path class="st0" d="M128.6,115.8c5.3-11.6,17.2-19.3,31.2-19.3c13.9,0,25.8,7.9,31.2,19.3H128.6z"/>
		</g>
	</g>
</g>
<g>
	<path class="st0" d="M165.8,29c-1.5-0.1-2.7-1.4-2.6-2.9c0.1-1.5,1.4-2.7,2.9-2.6c1.5,0.1,2.7,1.4,2.6,2.9
		C168.6,27.9,167.3,29,165.8,29z"/>
	<path class="st0" d="M176.8,30c-1.5-0.2-2.6-1.6-2.4-3.1c0.2-1.5,1.6-2.6,3.1-2.4c1.5,0.2,2.6,1.6,2.4,3.1
		C179.7,29.1,178.3,30.2,176.8,30z"/>
	<path class="st0" d="M187.4,31.9c-1.5-0.3-2.4-1.8-2.1-3.3c0.3-1.5,1.8-2.5,3.3-2.1c1.5,0.3,2.5,1.8,2.1,3.3
		C190.4,31.2,188.9,32.2,187.4,31.9z"/>
	<path class="st0" d="M197.9,34.6c-1.5-0.5-2.3-2-1.8-3.5c0.5-1.5,2-2.3,3.5-1.8c1.5,0.5,2.3,2,1.8,3.5
		C200.9,34.3,199.4,35.1,197.9,34.6z"/>
	<path class="st0" d="M208.1,38.2c-1.4-0.6-2.1-2.2-1.5-3.6c0.6-1.4,2.2-2.1,3.6-1.5c1.4,0.6,2.1,2.2,1.5,3.6
		C211.1,38.1,209.5,38.8,208.1,38.2z"/>
	<path class="st0" d="M218,42.7c-1.4-0.7-1.9-2.3-1.2-3.7c0.7-1.4,2.3-1.9,3.7-1.2c1.4,0.7,1.9,2.4,1.2,3.7
		C221,42.9,219.3,43.4,218,42.7z"/>
	<path class="st0" d="M227.4,48c-1.3-0.8-1.7-2.5-0.9-3.8c0.8-1.3,2.5-1.7,3.8-0.9c1.3,0.8,1.7,2.5,0.9,3.8
		C230.4,48.4,228.7,48.8,227.4,48z"/>
	<path class="st0" d="M236.4,54c-1.2-0.9-1.5-2.6-0.6-3.9c0.9-1.2,2.6-1.5,3.9-0.6c1.2,0.9,1.5,2.7,0.6,3.9
		C239.4,54.7,237.6,54.9,236.4,54z"/>
	<path class="st0" d="M244.8,60.8c-1.2-1-1.3-2.7-0.3-3.9c1-1.2,2.7-1.3,3.9-0.3c1.2,1,1.3,2.8,0.3,3.9
		C247.7,61.7,246,61.8,244.8,60.8z"/>
	<path class="st0" d="M252.7,68.2c-1.1-1.1-1.1-2.8,0.1-3.9c1.1-1.1,2.8-1.1,3.9,0c1.1,1.1,1,2.9-0.1,3.9
		C255.5,69.4,253.7,69.3,252.7,68.2z"/>
	<path class="st0" d="M259.9,76.3c-1-1.2-0.8-2.9,0.4-3.9c1.2-1,2.9-0.8,3.9,0.4c1,1.2,0.8,2.9-0.4,3.9
		C262.6,77.7,260.9,77.5,259.9,76.3z"/>
	<path class="st0" d="M266.4,84.9c-0.9-1.3-0.6-3,0.7-3.9c1.3-0.9,3-0.6,3.9,0.7c0.9,1.3,0.6,3-0.7,3.9
		C269,86.5,267.3,86.2,266.4,84.9z"/>
	<path class="st0" d="M272.2,94.1c-0.8-1.3-0.3-3,1-3.8c1.3-0.8,3-0.3,3.8,1c0.8,1.3,0.3,3-1,3.8C274.6,95.9,272.9,95.4,272.2,94.1z
		"/>
	<path class="st0" d="M277.2,103.7c-0.6-1.4-0.1-3,1.3-3.7c1.4-0.7,3-0.1,3.7,1.3c0.7,1.4,0,3.1-1.3,3.7
		C279.5,105.7,277.8,105.1,277.2,103.7z"/>
	<path class="st0" d="M281.3,113.7c-0.5-1.4,0.2-3,1.6-3.6c1.4-0.5,3,0.2,3.6,1.6c0.5,1.4-0.2,3-1.6,3.6
		C283.5,115.9,281.9,115.1,281.3,113.7z"/>
	<path class="st0" d="M284.7,124c-0.4-1.5,0.4-3,1.9-3.4c1.5-0.4,3,0.4,3.4,1.9c0.4,1.5-0.5,3-1.9,3.4
		C286.6,126.3,285.1,125.5,284.7,124z"/>
	<path class="st0" d="M287.1,134.5c-0.3-1.5,0.7-2.9,2.2-3.2c1.5-0.3,3,0.7,3.2,2.2c0.3,1.5-0.7,3-2.2,3.3
		C288.8,137,287.4,136,287.1,134.5z"/>
	<path class="st0" d="M288.7,145.2c-0.2-1.5,0.9-2.9,2.5-3c1.5-0.2,2.9,0.9,3,2.5c0.2,1.5-1,2.9-2.5,3.1
		C290.2,147.9,288.8,146.8,288.7,145.2z"/>
	<path class="st0" d="M289.3,156c0-1.5,1.2-2.8,2.7-2.8c1.5,0,2.8,1.2,2.8,2.7c0,1.5-1.2,2.8-2.7,2.8
		C290.6,158.8,289.3,157.6,289.3,156z"/>
	<path class="st0" d="M289.1,166.9c0.1-1.5,1.4-2.7,2.9-2.6c1.5,0.1,2.7,1.4,2.6,2.9c-0.1,1.5-1.4,2.7-3,2.6
		C290.1,169.8,289,168.4,289.1,166.9z"/>
	<path class="st0" d="M287.9,177.7c0.2-1.5,1.6-2.6,3.1-2.3c1.5,0.2,2.6,1.6,2.4,3.1c-0.2,1.5-1.6,2.6-3.2,2.3
		C288.8,180.6,287.7,179.2,287.9,177.7z"/>
	<path class="st0" d="M285.9,188.3c0.3-1.5,1.8-2.4,3.3-2.1c1.5,0.4,2.4,1.8,2.1,3.3c-0.3,1.5-1.9,2.4-3.3,2.1
		C286.5,191.3,285.6,189.8,285.9,188.3z"/>
	<path class="st0" d="M283,198.7c0.5-1.5,2-2.3,3.5-1.8c1.5,0.5,2.3,2,1.8,3.5c-0.5,1.5-2,2.3-3.5,1.8
		C283.3,201.8,282.5,200.2,283,198.7z"/>
	<path class="st0" d="M279.2,208.9c0.6-1.4,2.2-2.1,3.6-1.5c1.4,0.6,2.1,2.2,1.5,3.6c-0.6,1.4-2.2,2.1-3.6,1.5
		C279.3,211.9,278.7,210.3,279.2,208.9z"/>
	<path class="st0" d="M274.6,218.7c0.7-1.4,2.4-1.9,3.7-1.2c1.4,0.7,1.9,2.4,1.2,3.7c-0.7,1.4-2.4,1.9-3.8,1.2
		C274.4,221.7,273.9,220,274.6,218.7z"/>
	<path class="st0" d="M269.2,228c0.8-1.3,2.5-1.7,3.8-0.9c1.3,0.8,1.7,2.5,0.9,3.8c-0.8,1.3-2.5,1.7-3.8,0.9
		C268.8,231.1,268.4,229.3,269.2,228z"/>
	<path class="st0" d="M263.1,236.9c0.9-1.2,2.6-1.5,3.9-0.5c1.2,0.9,1.5,2.6,0.5,3.9c-0.9,1.2-2.7,1.5-3.9,0.5
		C262.4,239.9,262.1,238.2,263.1,236.9z"/>
	<path class="st0" d="M256.2,245.3c1-1.1,2.8-1.2,3.9-0.2c1.1,1,1.3,2.8,0.2,3.9c-1,1.1-2.8,1.2-3.9,0.2
		C255.2,248.2,255.1,246.4,256.2,245.3z"/>
	<path class="st0" d="M248.6,253c1.1-1.1,2.8-1,3.9,0.1c1.1,1.1,1,2.9-0.1,3.9c-1.1,1.1-2.9,1-3.9-0.1
		C247.4,255.8,247.5,254.1,248.6,253z"/>
	<path class="st0" d="M240.4,260.1c1.2-1,2.9-0.8,3.9,0.4c1,1.2,0.8,2.9-0.4,3.9c-1.2,1-3,0.8-3.9-0.4
		C239,262.8,239.2,261.1,240.4,260.1z"/>
	<path class="st0" d="M231.7,266.5c1.3-0.9,3-0.5,3.8,0.8c0.9,1.3,0.5,3-0.7,3.9c-1.3,0.9-3,0.5-3.9-0.8
		C230.1,269.1,230.4,267.4,231.7,266.5z"/>
	<path class="st0" d="M222.5,272.2c1.3-0.7,3-0.3,3.8,1.1c0.7,1.3,0.3,3-1.1,3.8c-1.3,0.7-3,0.3-3.8-1.1
		C220.6,274.6,221.1,272.9,222.5,272.2z"/>
	<path class="st0" d="M212.8,277c1.4-0.6,3,0,3.7,1.4c0.6,1.4,0,3-1.4,3.7c-1.4,0.6-3.1,0-3.7-1.4
		C210.8,279.3,211.4,277.6,212.8,277z"/>
	<path class="st0" d="M202.8,281c1.4-0.5,3,0.2,3.5,1.7c0.5,1.4-0.2,3-1.7,3.5c-1.4,0.5-3-0.3-3.6-1.7
		C200.6,283.1,201.3,281.5,202.8,281z"/>
	<path class="st0" d="M192.4,284.2c1.5-0.4,3,0.5,3.4,2c0.4,1.5-0.5,3-2,3.4c-1.5,0.4-3-0.5-3.4-2
		C190,286.1,190.9,284.6,192.4,284.2z"/>
	<path class="st0" d="M181.8,286.5c1.5-0.3,2.9,0.7,3.2,2.3c0.3,1.5-0.7,2.9-2.3,3.2c-1.5,0.3-3-0.8-3.2-2.3
		C179.3,288.2,180.3,286.8,181.8,286.5z"/>
	<path class="st0" d="M171.1,287.9c1.5-0.1,2.9,1,3,2.5c0.1,1.5-1,2.9-2.5,3c-1.5,0.1-2.9-1-3-2.5
		C168.4,289.4,169.6,288,171.1,287.9z"/>
	<path class="st0" d="M160.3,288.4c1.5,0,2.8,1.2,2.8,2.8c0,1.5-1.2,2.8-2.8,2.8c-1.5,0-2.8-1.2-2.8-2.8
		C157.5,289.6,158.8,288.4,160.3,288.4z"/>
	<path class="st0" d="M149.4,288c1.5,0.1,2.7,1.4,2.5,3c-0.1,1.5-1.4,2.7-3,2.6c-1.5-0.1-2.7-1.5-2.6-3
		C146.5,289,147.9,287.9,149.4,288z"/>
	<path class="st0" d="M138.7,286.7c1.5,0.2,2.5,1.6,2.3,3.2c-0.2,1.5-1.6,2.6-3.2,2.3c-1.5-0.2-2.5-1.7-2.3-3.2
		C135.7,287.5,137.1,286.5,138.7,286.7z"/>
	<path class="st0" d="M128.1,284.5c1.5,0.4,2.4,1.9,2,3.4c-0.4,1.5-1.9,2.4-3.4,2c-1.5-0.4-2.4-1.9-2-3.4
		C125.1,285.1,126.6,284.2,128.1,284.5z"/>
	<path class="st0" d="M117.7,281.5c1.5,0.5,2.2,2,1.7,3.5c-0.5,1.5-2.1,2.2-3.5,1.7c-1.5-0.5-2.2-2.1-1.7-3.5
		C114.6,281.8,116.2,281,117.7,281.5z"/>
	<path class="st0" d="M107.6,277.6c1.4,0.6,2,2.2,1.4,3.6c-0.6,1.4-2.2,2.1-3.7,1.4c-1.4-0.6-2-2.3-1.4-3.7
		C104.5,277.6,106.2,277,107.6,277.6z"/>
	<path class="st0" d="M97.9,272.8c1.3,0.7,1.9,2.4,1.1,3.8c-0.7,1.3-2.4,1.9-3.8,1.1c-1.3-0.7-1.9-2.4-1.1-3.8
		C94.8,272.6,96.5,272.1,97.9,272.8z"/>
	<path class="st0" d="M88.6,267.3c1.3,0.8,1.6,2.5,0.8,3.8c-0.8,1.3-2.5,1.7-3.8,0.8c-1.3-0.8-1.6-2.6-0.8-3.9
		C85.6,266.8,87.3,266.4,88.6,267.3z"/>
	<path class="st0" d="M79.8,261c1.2,0.9,1.4,2.7,0.5,3.9c-0.9,1.2-2.7,1.4-3.9,0.5c-1.2-0.9-1.4-2.7-0.5-3.9
		C76.8,260.2,78.6,260,79.8,261z"/>
	<path class="st0" d="M71.5,254c1.1,1,1.2,2.8,0.2,3.9c-1,1.1-2.8,1.2-3.9,0.2c-1.1-1-1.2-2.8-0.2-3.9C68.6,253,70.4,252.9,71.5,254
		z"/>
	<path class="st0" d="M63.9,246.3c1,1.1,1,2.9-0.2,3.9c-1.1,1-2.9,1-3.9-0.2c-1-1.1-1-2.9,0.2-3.9C61.1,245.1,62.9,245.2,63.9,246.3
		z"/>
	<path class="st0" d="M56.9,238c0.9,1.2,0.7,2.9-0.5,3.9c-1.2,0.9-2.9,0.7-3.9-0.5c-0.9-1.2-0.7-3,0.5-3.9
		C54.2,236.6,56,236.8,56.9,238z"/>
	<path class="st0" d="M50.7,229.2c0.8,1.3,0.5,3-0.8,3.8c-1.3,0.8-3,0.5-3.8-0.8c-0.8-1.3-0.5-3,0.8-3.8
		C48.1,227.5,49.8,227.9,50.7,229.2z"/>
	<path class="st0" d="M45.1,219.9c0.7,1.3,0.2,3-1.1,3.7c-1.3,0.7-3,0.2-3.8-1.1c-0.7-1.4-0.2-3,1.1-3.8
		C42.7,218,44.4,218.5,45.1,219.9z"/>
	<path class="st0" d="M40.4,210.2c0.6,1.4,0,3-1.4,3.6c-1.4,0.6-3,0-3.7-1.4c-0.6-1.4,0-3.1,1.4-3.7
		C38.2,208.1,39.8,208.8,40.4,210.2z"/>
	<path class="st0" d="M36.6,200.1c0.5,1.5-0.3,3-1.7,3.5c-1.5,0.5-3-0.3-3.5-1.7c-0.5-1.5,0.3-3,1.8-3.5
		C34.5,197.8,36.1,198.6,36.6,200.1z"/>
	<path class="st0" d="M33.5,189.7c0.4,1.5-0.5,3-2,3.3c-1.5,0.4-3-0.5-3.4-2c-0.4-1.5,0.6-3,2-3.4C31.7,187.3,33.2,188.2,33.5,189.7
		z"/>
	<path class="st0" d="M31.4,179.1c0.2,1.5-0.8,2.9-2.3,3.2c-1.5,0.2-2.9-0.8-3.2-2.3c-0.2-1.5,0.8-2.9,2.3-3.2
		C29.7,176.5,31.2,177.5,31.4,179.1z"/>
	<path class="st0" d="M30.2,168.3c0.1,1.5-1,2.8-2.6,3c-1.5,0.1-2.9-1-3-2.6c-0.1-1.5,1-2.9,2.6-3C28.7,165.6,30,166.8,30.2,168.3z"
		/>
	<path class="st0" d="M29.8,157.5c0,1.5-1.2,2.8-2.8,2.7c-1.5,0-2.8-1.2-2.8-2.8c0-1.5,1.3-2.8,2.8-2.8
		C28.6,154.7,29.8,155.9,29.8,157.5z"/>
	<path class="st0" d="M30.3,146.7c-0.1,1.5-1.5,2.6-3,2.5c-1.5-0.1-2.7-1.5-2.5-3c0.1-1.5,1.5-2.7,3-2.5
		C29.4,143.8,30.5,145.1,30.3,146.7z"/>
	<path class="st0" d="M31.8,135.9c-0.3,1.5-1.7,2.5-3.2,2.2c-1.5-0.3-2.5-1.7-2.3-3.2c0.3-1.5,1.7-2.5,3.2-2.3
		C31,133,32,134.4,31.8,135.9z"/>
	<path class="st0" d="M34.1,125.4c-0.4,1.5-1.9,2.4-3.4,2c-1.5-0.4-2.4-1.9-2-3.4c0.4-1.5,1.9-2.4,3.4-2
		C33.6,122.4,34.5,123.9,34.1,125.4z"/>
	<path class="st0" d="M37.3,115c-0.5,1.4-2.1,2.2-3.5,1.7c-1.4-0.5-2.2-2.1-1.7-3.5c0.5-1.4,2.1-2.2,3.6-1.7
		C37.1,112,37.8,113.6,37.3,115z"/>
	<path class="st0" d="M41.4,105c-0.6,1.4-2.3,2-3.7,1.4c-1.4-0.6-2-2.3-1.4-3.7c0.6-1.4,2.3-2,3.7-1.4C41.4,101.9,42,103.6,41.4,105
		z"/>
	<path class="st0" d="M46.3,95.3c-0.7,1.3-2.4,1.8-3.8,1.1c-1.3-0.7-1.8-2.4-1.1-3.8c0.7-1.3,2.5-1.8,3.8-1.1
		C46.5,92.3,47,94,46.3,95.3z"/>
	<path class="st0" d="M51.9,86.1c-0.9,1.3-2.6,1.6-3.8,0.7c-1.3-0.9-1.6-2.6-0.8-3.9c0.9-1.3,2.6-1.6,3.9-0.8
		C52.5,83.1,52.8,84.9,51.9,86.1z"/>
	<path class="st0" d="M58.3,77.4c-1,1.2-2.7,1.4-3.9,0.4c-1.2-1-1.4-2.7-0.4-3.9c1-1.2,2.7-1.4,3.9-0.4
		C59.1,74.5,59.3,76.2,58.3,77.4z"/>
	<path class="st0" d="M65.5,69.3c-1.1,1.1-2.8,1.2-3.9,0.1c-1.1-1.1-1.2-2.8-0.1-3.9c1.1-1.1,2.8-1.2,3.9-0.1
		C66.5,66.4,66.5,68.2,65.5,69.3z"/>
	<path class="st0" d="M73.2,61.7c-1.1,1-2.9,0.9-3.9-0.2c-1-1.1-0.9-2.9,0.2-3.9c1.1-1,2.9-0.9,3.9,0.2C74.5,59,74.4,60.7,73.2,61.7
		z"/>
	<path class="st0" d="M81.6,54.9c-1.2,0.9-2.9,0.7-3.9-0.5c-0.9-1.2-0.7-3,0.5-3.9c1.2-0.9,3-0.7,3.9,0.6
		C83.1,52.2,82.8,54,81.6,54.9z"/>
	<path class="st0" d="M90.5,48.7c-1.3,0.8-3,0.4-3.8-0.9c-0.8-1.3-0.5-3,0.9-3.8c1.3-0.8,3-0.4,3.8,0.9
		C92.2,46.2,91.8,47.9,90.5,48.7z"/>
	<path class="st0" d="M99.9,43.4c-1.4,0.7-3,0.2-3.7-1.2c-0.7-1.4-0.2-3,1.2-3.7c1.4-0.7,3-0.2,3.8,1.2
		C101.8,41,101.3,42.6,99.9,43.4z"/>
	<path class="st0" d="M109.7,38.8c-1.4,0.6-3-0.1-3.6-1.5c-0.6-1.4,0.1-3,1.5-3.6c1.4-0.6,3.1,0.1,3.6,1.5
		C111.8,36.6,111.1,38.2,109.7,38.8z"/>
	<path class="st0" d="M119.9,35c-1.5,0.5-3-0.3-3.5-1.8c-0.5-1.5,0.3-3,1.8-3.5c1.5-0.5,3,0.3,3.5,1.8S121.3,34.6,119.9,35z"/>
	<path class="st0" d="M130.3,32.2c-1.5,0.3-3-0.6-3.3-2.1c-0.3-1.5,0.6-3,2.1-3.3c1.5-0.3,3,0.6,3.3,2.1
		C132.7,30.3,131.8,31.8,130.3,32.2z"/>
	<path class="st0" d="M140.9,30.2c-1.5,0.2-2.9-0.8-3.1-2.3c-0.2-1.5,0.8-2.9,2.3-3.2c1.5-0.2,2.9,0.8,3.2,2.4
		C143.5,28.6,142.5,30,140.9,30.2z"/>
	<path class="st0" d="M153,28.8c-1.5,0.1-2.8-1.1-2.9-2.6c-0.1-1.5,1-2.9,2.6-2.9c1.5-0.1,2.9,1.1,2.9,2.6
		C155.7,27.4,154.5,28.7,153,28.8z"/>
</g>
<path class="st0" d="M253.7,266.5c-1,1-1.5,2.3-1.5,3.7c0,1.5,0.5,2.7,1.5,3.7c1,1,2.3,1.5,3.7,1.5c1.5,0,2.7-0.5,3.7-1.5
	c1-1,1.5-2.3,1.5-3.7c0-1.4-0.5-2.7-1.5-3.7c-1-1-2.3-1.5-3.7-1.5C255.9,264.9,254.7,265.4,253.7,266.5z M261.7,274.5
	c-1.2,1.2-2.6,1.8-4.3,1.8c-1.7,0-3.1-0.6-4.3-1.8c-1.2-1.2-1.8-2.6-1.8-4.3c0-1.7,0.6-3.1,1.8-4.3c1.2-1.2,2.6-1.8,4.3-1.8
	c1.7,0,3.1,0.6,4.3,1.8c1.2,1.2,1.8,2.6,1.8,4.3C263.5,271.9,262.9,273.3,261.7,274.5z M258.5,267.9c-0.3-0.2-0.8-0.2-1.4-0.2h-1
	v2.4h1.1c0.5,0,0.9-0.1,1.1-0.2c0.5-0.2,0.7-0.5,0.7-1C259,268.4,258.8,268,258.5,267.9z M257.3,266.8c0.8,0,1.4,0.1,1.8,0.2
	c0.7,0.3,1,0.8,1,1.7c0,0.6-0.2,1-0.7,1.3c-0.2,0.1-0.6,0.3-1,0.3c0.5,0.1,0.9,0.3,1.2,0.7c0.2,0.3,0.4,0.7,0.4,1v0.5
	c0,0.1,0,0.3,0,0.5c0,0.2,0,0.3,0.1,0.3l0,0.1H259c0,0,0,0,0-0.1c0,0,0,0,0-0.1l0-0.2v-0.5c0-0.8-0.2-1.3-0.6-1.5
	c-0.2-0.1-0.7-0.2-1.3-0.2h-0.9v2.6h-1.2v-6.7H257.3z"/>
<g>
	<path d="M372,119.4c0,8-2,14.2-6,18.5c-4,4.3-9.7,6.5-17.1,6.5s-13.1-2.2-17.1-6.5c-4-4.3-6-10.5-6-18.5c0-8.1,2-14.2,6-18.5
		c4-4.2,9.7-6.4,17.1-6.4c7.4,0,13.1,2.1,17.1,6.4C370.1,105.2,372,111.3,372,119.4z M336.7,119.4c0,5.4,1,9.5,3.1,12.2
		c2.1,2.7,5.1,4.1,9.2,4.1c8.2,0,12.3-5.4,12.3-16.3c0-10.9-4.1-16.4-12.2-16.4c-4.1,0-7.2,1.4-9.2,4.1
		C337.7,109.9,336.7,113.9,336.7,119.4z"/>
	<path d="M401.7,114.2H393v29.4h-10.1v-29.4h-5.6v-4.9l5.6-2.7v-2.7c0-4.2,1-7.3,3.1-9.2c2.1-1.9,5.4-2.9,10-2.9
		c3.5,0,6.6,0.5,9.3,1.6l-2.6,7.4c-2-0.6-3.9-1-5.6-1c-1.4,0-2.5,0.4-3.1,1.3c-0.6,0.9-1,1.9-1,3.3v2.3h8.7V114.2z M428,114.2h-8.7
		v29.4h-10.1v-29.4h-5.6v-4.9l5.6-2.7v-2.7c0-4.2,1-7.3,3.1-9.2c2.1-1.9,5.4-2.9,10-2.9c3.5,0,6.6,0.5,9.3,1.6l-2.6,7.4
		c-2-0.6-3.9-1-5.6-1c-1.4,0-2.5,0.4-3.1,1.3c-0.6,0.9-1,1.9-1,3.3v2.3h8.7V114.2z M433.3,97c0-3.3,1.8-4.9,5.5-4.9
		c3.7,0,5.5,1.6,5.5,4.9c0,1.6-0.5,2.8-1.4,3.7c-0.9,0.9-2.3,1.3-4.1,1.3C435.1,102,433.3,100.3,433.3,97z M443.8,143.6h-10.1v-37
		h10.1V143.6z"/>
	<path d="M469.4,144.3c-11.5,0-17.3-6.3-17.3-19c0-6.3,1.6-11.1,4.7-14.4c3.1-3.3,7.6-5,13.5-5c4.3,0,8.1,0.8,11.5,2.5l-3,7.8
		c-1.6-0.6-3.1-1.2-4.4-1.6c-1.4-0.4-2.7-0.6-4.1-0.6c-5.3,0-7.9,3.7-7.9,11.2c0,7.2,2.6,10.9,7.9,10.9c1.9,0,3.7-0.3,5.4-0.8
		c1.7-0.5,3.3-1.3,5-2.4v8.6c-1.6,1-3.3,1.8-5,2.2C474.1,144.1,472,144.3,469.4,144.3z"/>
	<path d="M488.8,97c0-3.3,1.8-4.9,5.5-4.9c3.7,0,5.5,1.6,5.5,4.9c0,1.6-0.5,2.8-1.4,3.7c-0.9,0.9-2.3,1.3-4.1,1.3
		C490.7,102,488.8,100.3,488.8,97z M499.4,143.6h-10.1v-37h10.1V143.6z"/>
	<path d="M533.5,143.6l-2-5h-0.3c-1.7,2.1-3.5,3.6-5.2,4.5c-1.8,0.8-4.1,1.2-7,1.2c-3.6,0-6.4-1-8.4-3c-2-2-3.1-4.9-3.1-8.7
		c0-3.9,1.4-6.8,4.1-8.7c2.7-1.9,6.9-2.9,12.4-3.1l6.4-0.2V119c0-3.8-1.9-5.6-5.8-5.6c-3,0-6.4,0.9-10.4,2.7l-3.3-6.8
		c4.3-2.2,9-3.3,14.2-3.3c5,0,8.8,1.1,11.4,3.2c2.6,2.2,4,5.5,4,9.9v24.7H533.5z M530.5,126.5l-3.9,0.1c-2.9,0.1-5.1,0.6-6.6,1.6
		c-1.4,1-2.2,2.5-2.2,4.4c0,2.8,1.6,4.3,4.9,4.3c2.3,0,4.2-0.7,5.6-2c1.4-1.3,2.1-3.1,2.1-5.4V126.5z"/>
	<path d="M561,143.6h-10.1V92.1H561V143.6z"/>
	<path d="M581.7,143.6h-10.1V92.1h10.1V143.6z"/>
	<path d="M587,106.6h11.1l7,20.8c0.6,1.8,1,4,1.2,6.4h0.2c0.2-2.3,0.7-4.4,1.4-6.4l6.9-20.8h10.8l-15.7,41.8
		c-1.4,3.9-3.5,6.8-6.1,8.7c-2.7,1.9-5.8,2.9-9.3,2.9c-1.7,0-3.5-0.2-5.1-0.6v-8c1.2,0.3,2.5,0.4,4,0.4c1.8,0,3.3-0.5,4.7-1.6
		s2.4-2.7,3.1-5l0.6-1.8L587,106.6z"/>
	<path d="M658.6,143.6h-10.1V92.1h10.1V143.6z"/>
	<path d="M668.8,97c0-3.3,1.8-4.9,5.5-4.9c3.7,0,5.5,1.6,5.5,4.9c0,1.6-0.5,2.8-1.4,3.7c-0.9,0.9-2.3,1.3-4.1,1.3
		C670.6,102,668.8,100.3,668.8,97z M679.3,143.6h-10.1v-37h10.1V143.6z"/>
	<path d="M704.9,144.3c-11.5,0-17.3-6.3-17.3-19c0-6.3,1.6-11.1,4.7-14.4c3.1-3.3,7.6-5,13.5-5c4.3,0,8.1,0.8,11.5,2.5l-3,7.8
		c-1.6-0.6-3.1-1.2-4.4-1.6c-1.4-0.4-2.7-0.6-4.1-0.6c-5.3,0-7.9,3.7-7.9,11.2c0,7.2,2.6,10.9,7.9,10.9c1.9,0,3.7-0.3,5.4-0.8
		c1.7-0.5,3.3-1.3,5-2.4v8.6c-1.6,1-3.3,1.8-5,2.2C709.6,144.1,707.5,144.3,704.9,144.3z"/>
	<path d="M741.5,144.3c-6,0-10.6-1.6-14-4.9c-3.4-3.3-5-7.9-5-14c0-6.2,1.6-11,4.7-14.4c3.1-3.4,7.4-5.1,12.9-5.1
		c5.2,0,9.3,1.5,12.2,4.5s4.4,7.1,4.4,12.4v4.9h-23.9c0.1,2.9,1,5.1,2.5,6.7c1.6,1.6,3.8,2.4,6.7,2.4c2.2,0,4.3-0.2,6.3-0.7
		c2-0.5,4.1-1.2,6.2-2.2v7.8c-1.8,0.9-3.7,1.5-5.7,2S744.4,144.3,741.5,144.3z M740.1,113.1c-2.1,0-3.8,0.7-5,2
		c-1.2,1.4-1.9,3.3-2.1,5.8h14.2c0-2.5-0.7-4.4-2-5.8C744,113.8,742.3,113.1,740.1,113.1z"/>
	<path d="M799,143.6h-10.1V122c0-2.7-0.5-4.7-1.4-6c-0.9-1.3-2.5-2-4.5-2c-2.8,0-4.9,0.9-6.1,2.8c-1.3,1.9-1.9,5-1.9,9.4v17.4h-10.1
		v-37h7.7l1.4,4.7h0.6c1.1-1.8,2.7-3.1,4.7-4.1c2-0.9,4.2-1.4,6.7-1.4c4.3,0,7.6,1.2,9.8,3.5c2.2,2.3,3.3,5.7,3.3,10.1V143.6z"/>
	<path d="M835.3,132.6c0,3.8-1.3,6.7-4,8.7c-2.6,2-6.6,3-11.8,3c-2.7,0-5-0.2-6.9-0.5s-3.7-0.9-5.3-1.6v-8.3c1.9,0.9,4,1.6,6.3,2.2
		c2.4,0.6,4.4,0.9,6.2,0.9c3.7,0,5.5-1.1,5.5-3.2c0-0.8-0.2-1.4-0.7-1.9c-0.5-0.5-1.3-1.1-2.5-1.7c-1.2-0.6-2.8-1.4-4.8-2.2
		c-2.8-1.2-4.9-2.3-6.3-3.3c-1.3-1-2.3-2.2-2.9-3.5c-0.6-1.3-0.9-2.9-0.9-4.9c0-3.3,1.3-5.8,3.8-7.6s6.2-2.7,10.8-2.7
		c4.5,0,8.8,1,13,2.9l-3,7.3c-1.9-0.8-3.6-1.4-5.2-2s-3.3-0.8-4.9-0.8c-3,0-4.5,0.8-4.5,2.4c0,0.9,0.5,1.7,1.4,2.4
		c1,0.7,3.1,1.6,6.3,2.9c2.9,1.2,5,2.3,6.4,3.3c1.3,1,2.3,2.2,3,3.5S835.3,130.8,835.3,132.6z"/>
	<path d="M859.9,144.3c-6,0-10.6-1.6-14-4.9c-3.4-3.3-5-7.9-5-14c0-6.2,1.6-11,4.7-14.4c3.1-3.4,7.4-5.1,12.9-5.1
		c5.2,0,9.3,1.5,12.2,4.5s4.4,7.1,4.4,12.4v4.9h-23.9c0.1,2.9,1,5.1,2.5,6.7c1.6,1.6,3.8,2.4,6.7,2.4c2.2,0,4.3-0.2,6.3-0.7
		c2-0.5,4.1-1.2,6.2-2.2v7.8c-1.8,0.9-3.7,1.5-5.7,2S862.8,144.3,859.9,144.3z M858.5,113.1c-2.1,0-3.8,0.7-5,2
		c-1.2,1.4-1.9,3.3-2.1,5.8h14.2c0-2.5-0.7-4.4-2-5.8C862.3,113.8,860.6,113.1,858.5,113.1z"/>
	<path d="M894.9,144.3c-4.3,0-7.8-1.7-10.2-5.1c-2.5-3.4-3.7-8.1-3.7-14c0-6.1,1.3-10.8,3.8-14.2c2.5-3.4,6-5.1,10.4-5.1
		c4.7,0,8.2,1.8,10.7,5.4h0.3c-0.5-2.8-0.8-5.2-0.8-7.4V92.1h10.1v51.5h-7.7l-2-4.8h-0.4C903.1,142.5,899.6,144.3,894.9,144.3z
		 M898.5,136.2c2.6,0,4.5-0.8,5.7-2.3c1.2-1.5,1.9-4.1,2-7.6v-1.1c0-4-0.6-6.8-1.8-8.5c-1.2-1.7-3.2-2.6-6-2.6c-2.3,0-4,1-5.2,2.9
		c-1.2,1.9-1.9,4.7-1.9,8.3s0.6,6.4,1.9,8.2S896.1,136.2,898.5,136.2z"/>
	<path d="M342.3,225.7c-11.5,0-17.3-6.3-17.3-19c0-6.3,1.6-11.1,4.7-14.4c3.1-3.3,7.6-5,13.5-5c4.3,0,8.1,0.8,11.5,2.5l-3,7.8
		c-1.6-0.6-3.1-1.2-4.4-1.6c-1.4-0.4-2.7-0.6-4.1-0.6c-5.3,0-7.9,3.7-7.9,11.2c0,7.2,2.6,10.9,7.9,10.9c1.9,0,3.7-0.3,5.4-0.8
		c1.7-0.5,3.3-1.3,5-2.4v8.6c-1.6,1-3.3,1.8-5,2.2C347,225.5,344.9,225.7,342.3,225.7z"/>
	<path d="M395.8,206.4c0,6-1.6,10.7-4.8,14.1c-3.2,3.4-7.6,5.1-13.3,5.1c-3.6,0-6.7-0.8-9.4-2.3s-4.8-3.8-6.3-6.7
		c-1.5-2.9-2.2-6.3-2.2-10.2c0-6,1.6-10.8,4.7-14.1c3.2-3.4,7.6-5,13.3-5c3.6,0,6.7,0.8,9.4,2.3c2.7,1.5,4.8,3.8,6.3,6.7
		S395.8,202.5,395.8,206.4z M370.2,206.4c0,3.7,0.6,6.4,1.8,8.3s3.2,2.8,5.9,2.8c2.7,0,4.6-0.9,5.8-2.8s1.8-4.6,1.8-8.3
		c0-3.7-0.6-6.4-1.8-8.2c-1.2-1.8-3.1-2.7-5.9-2.7c-2.7,0-4.6,0.9-5.8,2.7C370.8,200,370.2,202.7,370.2,206.4z"/>
	<path d="M414.3,225h-10.1v-51.5h10.1V225z"/>
	<path d="M435,225h-10.1v-51.5H435V225z"/>
	<path d="M462.3,225.7c-6,0-10.6-1.6-14-4.9c-3.4-3.3-5-7.9-5-14c0-6.2,1.6-11,4.7-14.4c3.1-3.4,7.4-5.1,12.9-5.1
		c5.2,0,9.3,1.5,12.2,4.5s4.4,7.1,4.4,12.4v4.9h-23.9c0.1,2.9,1,5.1,2.5,6.7c1.6,1.6,3.8,2.4,6.7,2.4c2.2,0,4.3-0.2,6.3-0.7
		c2-0.5,4.1-1.2,6.2-2.2v7.8c-1.8,0.9-3.7,1.5-5.7,2S465.2,225.7,462.3,225.7z M460.9,194.5c-2.1,0-3.8,0.7-5,2
		c-1.2,1.4-1.9,3.3-2.1,5.8h14.2c0-2.5-0.7-4.4-2-5.8C464.7,195.2,463,194.5,460.9,194.5z"/>
	<path d="M517.8,188v5.1l-5.8,1.5c1.1,1.7,1.6,3.5,1.6,5.6c0,4-1.4,7.1-4.2,9.3s-6.6,3.3-11.5,3.3l-1.8-0.1l-1.5-0.2
		c-1,0.8-1.6,1.7-1.6,2.6c0,1.5,1.9,2.2,5.6,2.2h6.3c4.1,0,7.2,0.9,9.3,2.6c2.1,1.7,3.2,4.3,3.2,7.7c0,4.3-1.8,7.7-5.4,10.1
		s-8.8,3.6-15.5,3.6c-5.2,0-9.1-0.9-11.8-2.7s-4.1-4.3-4.1-7.6c0-2.2,0.7-4.1,2.1-5.6c1.4-1.5,3.4-2.6,6.1-3.2
		c-1-0.4-1.9-1.2-2.7-2.2c-0.8-1-1.2-2.1-1.2-3.2c0-1.4,0.4-2.6,1.2-3.5c0.8-0.9,2-1.9,3.5-2.8c-1.9-0.8-3.5-2.2-4.6-4
		s-1.7-4-1.7-6.6c0-4,1.3-7.2,3.9-9.4c2.6-2.2,6.4-3.3,11.3-3.3c1,0,2.3,0.1,3.7,0.3s2.3,0.3,2.7,0.4H517.8z M489.3,230.2
		c0,1.4,0.7,2.5,2,3.3s3.2,1.2,5.6,1.2c3.6,0,6.5-0.5,8.5-1.5c2.1-1,3.1-2.4,3.1-4.1c0-1.4-0.6-2.4-1.8-2.9
		c-1.2-0.5-3.1-0.8-5.6-0.8h-5.2c-1.9,0-3.4,0.4-4.7,1.3C489.9,227.7,489.3,228.8,489.3,230.2z M492.9,200.1c0,2,0.5,3.6,1.4,4.8
		c0.9,1.2,2.3,1.8,4.2,1.8c1.9,0,3.3-0.6,4.2-1.8c0.9-1.2,1.3-2.8,1.3-4.8c0-4.5-1.8-6.7-5.5-6.7
		C494.8,193.4,492.9,195.6,492.9,200.1z"/>
	<path d="M523.5,178.4c0-3.3,1.8-4.9,5.5-4.9c3.7,0,5.5,1.6,5.5,4.9c0,1.6-0.5,2.8-1.4,3.7c-0.9,0.9-2.3,1.3-4.1,1.3
		C525.3,183.4,523.5,181.7,523.5,178.4z M534,225h-10.1v-37H534V225z"/>
	<path d="M568.1,225l-2-5h-0.3c-1.7,2.1-3.5,3.6-5.2,4.5c-1.8,0.8-4.1,1.2-7,1.2c-3.6,0-6.4-1-8.4-3c-2-2-3.1-4.9-3.1-8.7
		c0-3.9,1.4-6.8,4.1-8.7c2.7-1.9,6.9-2.9,12.4-3.1l6.4-0.2v-1.6c0-3.8-1.9-5.6-5.8-5.6c-3,0-6.4,0.9-10.4,2.7l-3.3-6.8
		c4.3-2.2,9-3.3,14.2-3.3c5,0,8.8,1.1,11.4,3.2c2.6,2.2,4,5.5,4,9.9V225H568.1z M565.2,207.9l-3.9,0.1c-2.9,0.1-5.1,0.6-6.6,1.6
		c-1.4,1-2.2,2.5-2.2,4.4c0,2.8,1.6,4.3,4.9,4.3c2.3,0,4.2-0.7,5.6-2c1.4-1.3,2.1-3.1,2.1-5.4V207.9z"/>
	<path d="M601.2,217.6c1.8,0,3.9-0.4,6.4-1.2v7.5c-2.5,1.1-5.6,1.7-9.3,1.7c-4,0-7-1-8.8-3.1c-1.8-2-2.8-5.1-2.8-9.2v-17.8h-4.8
		v-4.3l5.6-3.4l2.9-7.8h6.5v7.9h10.4v7.6h-10.4v17.8c0,1.4,0.4,2.5,1.2,3.2C598.8,217.3,599.9,217.6,601.2,217.6z"/>
	<path d="M631.8,225.7c-6,0-10.6-1.6-14-4.9c-3.4-3.3-5-7.9-5-14c0-6.2,1.6-11,4.7-14.4c3.1-3.4,7.4-5.1,12.9-5.1
		c5.2,0,9.3,1.5,12.2,4.5s4.4,7.1,4.4,12.4v4.9H623c0.1,2.9,1,5.1,2.5,6.7c1.6,1.6,3.8,2.4,6.7,2.4c2.2,0,4.3-0.2,6.3-0.7
		c2-0.5,4.1-1.2,6.2-2.2v7.8c-1.8,0.9-3.7,1.5-5.7,2S634.7,225.7,631.8,225.7z M630.4,194.5c-2.1,0-3.8,0.7-5,2
		c-1.2,1.4-1.9,3.3-2.1,5.8h14.2c0-2.5-0.7-4.4-2-5.8C634.2,195.2,632.5,194.5,630.4,194.5z"/>
	<path d="M693.1,225.7c-4.3,0-7.8-1.6-10.2-4.7h-0.5c0.4,3.1,0.5,4.9,0.5,5.4v15h-10.1V188h8.2l1.4,4.8h0.5
		c2.4-3.7,5.9-5.5,10.5-5.5c4.4,0,7.8,1.7,10.3,5.1s3.7,8.1,3.7,14.1c0,4-0.6,7.4-1.7,10.3s-2.8,5.1-5,6.7S696,225.7,693.1,225.7z
		 M690.1,195.4c-2.5,0-4.3,0.8-5.5,2.3c-1.1,1.5-1.7,4.1-1.8,7.6v1.1c0,4,0.6,6.8,1.8,8.5c1.2,1.7,3.1,2.6,5.6,2.6
		c4.5,0,6.8-3.7,6.8-11.2c0-3.6-0.6-6.4-1.7-8.2C694.2,196.3,692.5,195.4,690.1,195.4z"/>
	<path d="M736.3,187.3c1.4,0,2.5,0.1,3.4,0.3l-0.8,9.5c-0.8-0.2-1.8-0.3-3-0.3c-3.2,0-5.7,0.8-7.5,2.5c-1.8,1.7-2.7,4-2.7,7V225
		h-10.1v-37h7.6l1.5,6.2h0.5c1.1-2.1,2.7-3.7,4.7-5C731.9,187.9,734,187.3,736.3,187.3z"/>
	<path d="M780.1,206.4c0,6-1.6,10.7-4.8,14.1c-3.2,3.4-7.6,5.1-13.3,5.1c-3.6,0-6.7-0.8-9.4-2.3s-4.8-3.8-6.3-6.7
		c-1.5-2.9-2.2-6.3-2.2-10.2c0-6,1.6-10.8,4.7-14.1c3.2-3.4,7.6-5,13.3-5c3.6,0,6.7,0.8,9.4,2.3c2.7,1.5,4.8,3.8,6.3,6.7
		S780.1,202.5,780.1,206.4z M754.5,206.4c0,3.7,0.6,6.4,1.8,8.3s3.2,2.8,5.9,2.8c2.7,0,4.6-0.9,5.8-2.8s1.8-4.6,1.8-8.3
		c0-3.7-0.6-6.4-1.8-8.2c-1.2-1.8-3.1-2.7-5.9-2.7c-2.7,0-4.6,0.9-5.8,2.7C755.1,200,754.5,202.7,754.5,206.4z"/>
	<path d="M800.2,225.7c-4.3,0-7.8-1.7-10.2-5.1c-2.5-3.4-3.7-8.1-3.7-14c0-6.1,1.3-10.8,3.8-14.2c2.5-3.4,6-5.1,10.4-5.1
		c4.7,0,8.2,1.8,10.7,5.4h0.3c-0.5-2.8-0.8-5.2-0.8-7.4v-11.9h10.1V225H813l-2-4.8h-0.4C808.4,223.9,804.9,225.7,800.2,225.7z
		 M803.7,217.6c2.6,0,4.5-0.8,5.7-2.3c1.2-1.5,1.9-4.1,2-7.6v-1.1c0-4-0.6-6.8-1.8-8.5c-1.2-1.7-3.2-2.6-6-2.6c-2.3,0-4,1-5.2,2.9
		c-1.2,1.9-1.9,4.7-1.9,8.3s0.6,6.4,1.9,8.2S801.4,217.6,803.7,217.6z"/>
	<path d="M857.6,225l-1.4-4.7h-0.5c-1.1,1.7-2.6,3.1-4.6,4c-2,0.9-4.3,1.4-6.8,1.4c-4.3,0-7.6-1.2-9.8-3.5
		c-2.2-2.3-3.3-5.7-3.3-10.1V188h10.1v21.6c0,2.7,0.5,4.7,1.4,6c0.9,1.3,2.5,2,4.5,2c2.8,0,4.9-0.9,6.1-2.8c1.3-1.9,1.9-5,1.9-9.4
		V188h10.1v37H857.6z"/>
	<path d="M891,225.7c-11.5,0-17.3-6.3-17.3-19c0-6.3,1.6-11.1,4.7-14.4c3.1-3.3,7.6-5,13.5-5c4.3,0,8.1,0.8,11.5,2.5l-3,7.8
		c-1.6-0.6-3.1-1.2-4.4-1.6c-1.4-0.4-2.7-0.6-4.1-0.6c-5.3,0-7.9,3.7-7.9,11.2c0,7.2,2.6,10.9,7.9,10.9c1.9,0,3.7-0.3,5.4-0.8
		c1.7-0.5,3.3-1.3,5-2.4v8.6c-1.6,1-3.3,1.8-5,2.2C895.6,225.5,893.5,225.7,891,225.7z"/>
	<path d="M926.4,217.6c1.8,0,3.9-0.4,6.4-1.2v7.5c-2.5,1.1-5.6,1.7-9.3,1.7c-4,0-7-1-8.8-3.1c-1.8-2-2.8-5.1-2.8-9.2v-17.8h-4.8
		v-4.3l5.6-3.4l2.9-7.8h6.5v7.9h10.4v7.6H922v17.8c0,1.4,0.4,2.5,1.2,3.2C924,217.3,925.1,217.6,926.4,217.6z"/>
	<path d="M966.1,214c0,3.8-1.3,6.7-4,8.7c-2.6,2-6.6,3-11.8,3c-2.7,0-5-0.2-6.9-0.5s-3.7-0.9-5.3-1.6v-8.3c1.9,0.9,4,1.6,6.3,2.2
		c2.4,0.6,4.4,0.9,6.2,0.9c3.7,0,5.5-1.1,5.5-3.2c0-0.8-0.2-1.4-0.7-1.9c-0.5-0.5-1.3-1.1-2.5-1.7c-1.2-0.6-2.8-1.4-4.8-2.2
		c-2.8-1.2-4.9-2.3-6.3-3.3c-1.3-1-2.3-2.2-2.9-3.5c-0.6-1.3-0.9-2.9-0.9-4.9c0-3.3,1.3-5.8,3.8-7.6s6.2-2.7,10.8-2.7
		c4.5,0,8.8,1,13,2.9l-3,7.3c-1.9-0.8-3.6-1.4-5.2-2s-3.3-0.8-4.9-0.8c-3,0-4.5,0.8-4.5,2.4c0,0.9,0.5,1.7,1.4,2.4
		c1,0.7,3.1,1.6,6.3,2.9c2.9,1.2,5,2.3,6.4,3.3c1.3,1,2.3,2.2,3,3.5S966.1,212.2,966.1,214z"/>
</g>
</svg>
