<?xml version="1.0" encoding="utf-8"?>
<!-- Generator: Adobe Illustrator 19.1.0, SVG Export Plug-In . SVG Version: 6.00 Build 0)  -->
<svg version="1.1" id="Layer_1" xmlns="http://www.w3.org/2000/svg" xmlns:xlink="http://www.w3.org/1999/xlink" x="0px" y="0px"
	 viewBox="320 -63 499 155.7" style="enable-background:new 320 -63 499 155.7;" xml:space="preserve">
<style type="text/css">
	.st0{fill:#252A2F;}
	.st1{fill:#C82032;}
	.st2{fill:none;stroke:#FFFFFF;stroke-width:5;stroke-miterlimit:10;}
	.st3{fill:#FFFFFF;}
</style>
<g id="XMLID_1_">
	<g id="XMLID_2_">
		<path id="XMLID_40_" class="st0" d="M365.6,89.9c-4,1.9-8.2,2.7-13,2.7c-16,0-27.4-10-27.4-24.8c0-14.4,11.7-24.9,27.3-24.9
			c5.1,0,9.3,0.9,13.7,3.2l-3.2,7.1c-3.1-1.4-5.7-2-8.8-2c-9.7,0-16.7,6.5-16.7,16.5c0,9.2,6,16.5,16.6,16.5c3.3,0,5.9-0.5,9-1.9
			L365.6,89.9z"/>
		<path id="XMLID_42_" class="st0" d="M393.5,92.7c-14.5,0-23.9-10.9-23.9-25c0-14.4,10.2-24.6,24.5-24.6
			c13.3,0,23.3,10.4,23.3,24.6C417.4,81.6,408.1,92.7,393.5,92.7z M393.4,51.3c-8.9,0-11.4,9.6-11.4,16.5c0,7.1,2.3,16.5,11.5,16.5
			c7.2,0,11.5-5.9,11.5-16.3S401.1,51.3,393.4,51.3z"/>
		<path id="XMLID_45_" class="st0" d="M458.8,91.9l-19.3-25c-0.9-1.2-3.5-4.6-4.5-6v31h-9.5v-48h8.6l19.1,25.2
			c1,1.4,2.9,3.9,4.1,5.6V43.9h9.5v48L458.8,91.9L458.8,91.9z"/>
		<path id="XMLID_50_" class="st0" d="M510.3,91.9l-19.3-25c-0.9-1.2-3.5-4.6-4.5-6v31H477v-48h8.6l19.1,25.2c1,1.4,2.9,3.9,4.1,5.6
			V43.9h9.5v48L510.3,91.9L510.3,91.9z"/>
		<path id="XMLID_54_" class="st0" d="M528.7,91.9v-48h27.7v7.8h-15.8V63H556v7.8h-15.5v13.4h18.8V92L528.7,91.9L528.7,91.9z"/>
		<path id="XMLID_56_" class="st0" d="M605.1,89.9c-4,1.9-8.2,2.7-13,2.7c-16,0-27.4-10-27.4-24.8c0-14.4,11.7-24.9,27.3-24.9
			c5.1,0,9.3,0.9,13.7,3.2l-3.2,7.1c-3.1-1.4-5.7-2-8.8-2c-9.7,0-16.7,6.5-16.7,16.5c0,9.2,6,16.5,16.6,16.5c3.3,0,5.9-0.5,9-1.9
			L605.1,89.9z"/>
		<path id="XMLID_58_" class="st0" d="M633.3,51.6v40.3h-11.9V51.6H607v-7.8h40.8v7.8H633.3z"/>
		<path id="XMLID_60_" class="st0" d="M652.8,91.9v-48h11.9v48H652.8z"/>
		<path id="XMLID_62_" class="st0" d="M696.7,92.7c-14.5,0-23.9-10.9-23.9-25c0-14.4,10.2-24.6,24.5-24.6
			c13.3,0,23.3,10.4,23.3,24.6C720.6,81.6,711.3,92.7,696.7,92.7z M696.6,51.3c-8.9,0-11.4,9.6-11.4,16.5c0,7.1,2.3,16.5,11.5,16.5
			c7.2,0,11.5-5.9,11.5-16.3S704.3,51.3,696.6,51.3z"/>
		<path id="XMLID_65_" class="st0" d="M762,91.9l-19.3-25c-0.9-1.2-3.5-4.6-4.5-6v31h-9.5v-48h8.6l19.1,25.2c1,1.4,2.9,3.9,4.1,5.6
			V43.9h9.5v48L762,91.9L762,91.9z"/>
		<path id="XMLID_67_" class="st0" d="M791.7,92.7c-5.6,0-10.3-1.4-14.5-4.4l3.8-6.8c2.9,2.4,6.1,3.6,9.1,3.6c4,0,7.1-2.5,7.1-5.7
			c0-2.4-1.1-3.9-2.3-5.2c-2.1-2.2-8.8-7.1-11.4-9.7c-2.7-2.9-4.1-5.5-4.1-9.1c0-7.3,6.6-12.3,16.1-12.3c4.3,0,8.3,1.1,12.1,3.4
			l-3.4,6.3c-2.8-1.6-4.9-2.1-7.2-2.1c-3.6,0-5.4,1.9-5.4,4.2c0,1.7,1,3,2.1,4.1c2.4,2.5,8.6,6.9,11.3,9.7c2.7,2.9,4.3,5.8,4.3,9.9
			C809.1,87,801.9,92.7,791.7,92.7z"/>
	</g>
	<g id="XMLID_6_">
		<g id="XMLID_52_">
			<polygon id="XMLID_53_" class="st1" points="328.3,-57.8 328.3,32 476.5,32 506.4,67.9 506.4,32 525.3,32 525.3,-57.8 			"/>
		</g>
		<g id="XMLID_48_">
			<polygon id="XMLID_49_" class="st2" points="328.3,-57.8 328.3,32 476.5,32 506.4,67.9 506.4,32 525.3,32 525.3,-57.8 			"/>
		</g>
	</g>
	<g id="XMLID_5_">
		<path id="XMLID_7_" class="st3" d="M402.3,13.2h-13.9l-9.2-29.6l-9.9,29.6h-13.7l-12-47.3l14.7-1.4l6.6,34.1l10.9-33.4h10.6
			l9.7,33.4l7.3-34.1l12,1.4L402.3,13.2z"/>
		<path id="XMLID_9_" class="st3" d="M432.1,14c-5.8,0-10.6-1.4-15.2-4.5l4.4-8c2.6,2.2,5.8,3.4,8.7,3.4c3.3,0,6.1-1.9,6.1-4.7
			c0-2.1-1.1-3.6-2.3-4.8c-1.5-1.6-8.6-7.1-10.6-9.3c-2.9-3.1-4.3-5.6-4.3-9.4c0-7.6,6.9-12.6,16.9-12.6c4.4,0,8.6,1,12.7,3.2
			l-3.8,7.5c-2.7-1.3-4.6-1.8-6.8-1.8c-2.7,0-4.3,1.2-4.3,3c0,1.5,0.8,2.5,1.8,3.5c2.3,2.4,8.2,6.7,10.7,9.5
			c2.6,2.9,4.3,5.8,4.3,10.2C450.6,8.3,443.2,14,432.1,14z"/>
		<path id="XMLID_11_" class="st3" d="M499.7-8.4c0,6.1-0.3,8.6-1.4,11.4c-2.8,7.2-9.8,11-19.7,11c-8.1,0-14.3-2.7-17.8-7.6
			c-2.4-3.4-3-6.2-3-15.4v-25.9h14.3v23.5c0,7,0.3,9.5,1.1,11.5c1.1,2.6,3.2,3.9,6,3.9c3.6,0,6.2-2.1,7.3-5.7
			c0.5-1.7,0.8-5.3,0.8-10v-23.1h12.4V-8.4L499.7-8.4z"/>
	</g>
</g>
</svg>
