<?xml version="1.0" encoding="utf-8"?>
<!-- Generator: Adobe Illustrator 19.1.0, SVG Export Plug-In . SVG Version: 6.00 Build 0)  -->
<svg version="1.1" id="Layer_1" xmlns="http://www.w3.org/2000/svg" xmlns:xlink="http://www.w3.org/1999/xlink" x="0px" y="0px"
	 viewBox="320 -63 499 155.7" style="enable-background:new 320 -63 499 155.7;" xml:space="preserve">
<style type="text/css">
	.st0{fill:#252A2F;}
	.st1{fill:#C82032;}
	.st2{fill:none;stroke:#FFFFFF;stroke-width:5;stroke-miterlimit:10;}
	.st3{fill:#FFFFFF;}
</style>
<g id="XMLID_1_">
	<g id="XMLID_2_">
		<path id="XMLID_40_" class="st0" d="M365.6,89.9c-4,1.9-8.2,2.7-13,2.7c-16,0-27.4-10-27.4-24.8c0-14.4,11.7-24.9,27.3-24.9
			c5.1,0,9.3,0.9,13.7,3.2l-3.2,7.1c-3.1-1.4-5.7-2-8.8-2c-9.7,0-16.7,6.5-16.7,16.5c0,9.2,6,16.5,16.6,16.5c3.3,0,5.9-0.5,9-1.9
			L365.6,89.9z"/>
		<path id="XMLID_42_" class="st0" d="M393.5,92.7c-14.5,0-23.9-10.9-23.9-25c0-14.4,10.2-24.6,24.5-24.6
			c13.3,0,23.3,10.4,23.3,24.6C417.4,81.6,408.1,92.7,393.5,92.7z M393.4,51.3c-8.9,0-11.4,9.6-11.4,16.5c0,7.1,2.3,16.5,11.5,16.5
			c7.2,0,11.5-5.9,11.5-16.3S401.1,51.3,393.4,51.3z"/>
		<path id="XMLID_45_" class="st0" d="M458.8,91.9l-19.3-25c-0.9-1.2-3.5-4.6-4.5-6v31h-9.5v-48h8.6l19.1,25.2
			c1,1.4,2.9,3.9,4.1,5.6V43.9h9.5v48L458.8,91.9L458.8,91.9z"/>
		<path id="XMLID_50_" class="st0" d="M510.3,91.9l-19.3-25c-0.9-1.2-3.5-4.6-4.5-6v31H477v-48h8.6l19.1,25.2c1,1.4,2.9,3.9,4.1,5.6
			V43.9h9.5v48L510.3,91.9L510.3,91.9z"/>
		<path id="XMLID_54_" class="st0" d="M528.7,91.9v-48h27.7v7.8h-15.8V63H556v7.8h-15.5v13.4h18.8V92L528.7,91.9L528.7,91.9z"/>
		<path id="XMLID_56_" class="st0" d="M605.1,89.9c-4,1.9-8.2,2.7-13,2.7c-16,0-27.4-10-27.4-24.8c0-14.4,11.7-24.9,27.3-24.9
			c5.1,0,9.3,0.9,13.7,3.2l-3.2,7.1c-3.1-1.4-5.7-2-8.8-2c-9.7,0-16.7,6.5-16.7,16.5c0,9.2,6,16.5,16.6,16.5c3.3,0,5.9-0.5,9-1.9
			L605.1,89.9z"/>
		<path id="XMLID_58_" class="st0" d="M633.3,51.6v40.3h-11.9V51.6H607v-7.8h40.8v7.8H633.3z"/>
		<path id="XMLID_60_" class="st0" d="M652.8,91.9v-48h11.9v48H652.8z"/>
		<path id="XMLID_62_" class="st0" d="M696.7,92.7c-14.5,0-23.9-10.9-23.9-25c0-14.4,10.2-24.6,24.5-24.6
			c13.3,0,23.3,10.4,23.3,24.6C720.6,81.6,711.3,92.7,696.7,92.7z M696.6,51.3c-8.9,0-11.4,9.6-11.4,16.5c0,7.1,2.3,16.5,11.5,16.5
			c7.2,0,11.5-5.9,11.5-16.3S704.3,51.3,696.6,51.3z"/>
		<path id="XMLID_65_" class="st0" d="M762,91.9l-19.3-25c-0.9-1.2-3.5-4.6-4.5-6v31h-9.5v-48h8.6l19.1,25.2c1,1.4,2.9,3.9,4.1,5.6
			V43.9h9.5v48L762,91.9L762,91.9z"/>
		<path id="XMLID_67_" class="st0" d="M791.7,92.7c-5.6,0-10.3-1.4-14.5-4.4l3.8-6.8c2.9,2.4,6.1,3.6,9.1,3.6c4,0,7.1-2.5,7.1-5.7
			c0-2.4-1.1-3.9-2.3-5.2c-2.1-2.2-8.8-7.1-11.4-9.7c-2.7-2.9-4.1-5.5-4.1-9.1c0-7.3,6.6-12.3,16.1-12.3c4.3,0,8.3,1.1,12.1,3.4
			l-3.4,6.3c-2.8-1.6-4.9-2.1-7.2-2.1c-3.6,0-5.4,1.9-5.4,4.2c0,1.7,1,3,2.1,4.1c2.4,2.5,8.6,6.9,11.3,9.7c2.7,2.9,4.3,5.8,4.3,9.9
			C809.1,87,801.9,92.7,791.7,92.7z"/>
	</g>
	<g id="XMLID_3_">
		<path id="XMLID_13_" class="st0" d="M571.1,18.7V-1.6c0-2.5,0.1-7.1,0.3-10.5c-1.1,2.8-2.8,7.1-4.3,10.5l-8.7,20.3h-3l-8.2-20.1
			c-1.4-3.3-3.3-7.6-4.7-10.9c0.2,3.7,0.3,8.4,0.3,10.7v20.3h-4.2v-36h6.2l12.6,29.5L570-17.3h6.1v36H571.1z"/>
		<path id="XMLID_15_" class="st0" d="M598.2,18.7c-0.5-1.4-0.6-2.3-0.7-4.2c-1.8,2.9-5.4,4.8-8,4.8c-4.1,0-7.3-3-7.3-7.4
			c0-2.6,1.3-4.7,3.3-6.3c1.6-1.3,4.3-2.4,7.1-3.1c1.8-0.5,3.5-0.9,4.8-1.2c-0.5-2.9-1.3-5.8-5.4-5.8c-2.6,0-4.3,1-6.3,2.8l-1.8-2.6
			c2.7-2.3,5.3-3.4,8.9-3.4c3.2,0,6,0.9,7.7,3.2c1.2,1.7,1.6,3.7,1.6,8.2v7.2c0,2.9,0.5,6,1.1,7.7L598.2,18.7L598.2,18.7z
			 M595.1,13.8c1.5-1.8,2.4-4,2.4-6.6V4.5c-1.4,0.3-2.6,0.6-4,1c-3.4,1.1-6.6,3.1-6.6,6.2c0,2.6,1.5,4.3,3.8,4.3
			C592.5,15.9,594,15,595.1,13.8z"/>
		<path id="XMLID_18_" class="st0" d="M623.2-2c-1.2-1-2.4-1.2-3.5-1.2c-2,0-3.6,1.4-4.4,4.3c-0.5,1.5-0.7,3.4-0.7,6.2v11.4h-4.9V-7
			h4.9v4.5c0.1-0.5,0.3-0.9,0.4-1.2c0.9-2.2,2.6-3.9,5.2-3.9c1.5,0,3,0.6,4.7,2.3L623.2-2z"/>
		<path id="XMLID_20_" class="st0" d="M644.7,19.3l-11-14.5v14h-4.9V-19h4.9V4h0.2l10.2-11.3l3.8,1.9l-9.5,9.8l10.9,13.2L644.7,19.3
			z"/>
		<path id="XMLID_22_" class="st0" d="M674.2,16.2c-2.7,2.3-6.1,3.2-9.5,3.2s-6.1-0.9-8.3-2.7c-3.1-2.5-4.8-6.5-4.8-11.4
			c0-4.3,1.6-8.1,4.6-10.4c2-1.6,4.6-2.5,7.7-2.5c3.5,0,6.1,1.2,7.9,3.3c1.9,2.2,2.8,5.4,2.8,8.8c0,0.3,0,0.9-0.1,1.5h-17.8
			c0.2,6,3.1,10,9,10c2.2,0,4.9-1,6.8-2.5L674.2,16.2z M670,2.6c0-4-2.2-7.4-6.2-7.4c-3.8,0-6.7,2.6-7,7.8H670V2.6z"/>
		<path id="XMLID_25_" class="st0" d="M693.8,17.7c-1.8,1-3.6,1.6-5.6,1.6c-3,0-5-1.1-6.1-3c-0.9-1.6-1.1-3.1-1.1-6.4V-4.2h-3.6V-7
			h3.6v-6.2l4.9-1.5V-7h6.6v2.9h-6.6V9.2c0,4.4,0.6,7.1,3.6,7.1c0.9,0,2-0.3,3.3-1L693.8,17.7z"/>
		<path id="XMLID_27_" class="st0" d="M703.3,14.6v17h-4.8V-7h4.8v4.5c2-3.2,4.9-5.1,9-5.1c6.6,0,11.6,5.1,11.6,12.9
			s-5.1,14.1-12.4,14.1C708.3,19.4,705.1,17.7,703.3,14.6z M718.8,5.5c0-6.5-3.7-9.9-7.5-9.9c-3.5,0-8,2.5-8,10.5
			c0,5.7,2.7,10,7.6,10C715.8,16.1,718.8,11.9,718.8,5.5z"/>
		<path id="XMLID_30_" class="st0" d="M730.1,18.7v-37.8h4.9v37.8H730.1z"/>
		<path id="XMLID_32_" class="st0" d="M757.2,18.7c-0.5-1.4-0.6-2.3-0.7-4.2c-1.8,2.9-5.4,4.8-8,4.8c-4.1,0-7.3-3-7.3-7.4
			c0-2.6,1.3-4.7,3.3-6.3c1.6-1.3,4.3-2.4,7.1-3.1c1.8-0.5,3.5-0.9,4.8-1.2c-0.5-2.9-1.3-5.8-5.4-5.8c-2.6,0-4.3,1-6.3,2.8l-1.8-2.6
			c2.7-2.3,5.3-3.4,8.9-3.4c3.2,0,6,0.9,7.7,3.2c1.2,1.7,1.6,3.7,1.6,8.2v7.2c0,2.9,0.5,6,1.1,7.7L757.2,18.7L757.2,18.7z
			 M754.1,13.8c1.5-1.8,2.4-4,2.4-6.6V4.5c-1.4,0.3-2.6,0.6-4,1c-3.4,1.1-6.6,3.1-6.6,6.2c0,2.6,1.5,4.3,3.8,4.3
			C751.5,15.9,753,15,754.1,13.8z"/>
		<path id="XMLID_35_" class="st0" d="M788.5,17.3c-2.2,1.4-4.7,2.1-8.4,2.1c-6.8,0-13.3-4.9-13.3-13.5c0-8.3,6.3-13.5,14-13.5
			c3.5,0,6,0.9,7.7,2.1l-1.6,2.9c-1.5-1-3.3-1.5-5.3-1.5c-5.8,0-9.5,4.3-9.5,9.9c0,6.1,4.3,10.2,9.5,10.2c2,0,4-0.7,5.6-1.5
			L788.5,17.3z"/>
		<path id="XMLID_37_" class="st0" d="M814.5,16.2c-2.7,2.3-6.1,3.2-9.5,3.2s-6.1-0.9-8.3-2.7c-3.1-2.5-4.8-6.5-4.8-11.4
			c0-4.3,1.6-8.1,4.6-10.4c2-1.6,4.6-2.5,7.7-2.5c3.5,0,6.1,1.2,7.9,3.3c1.9,2.2,2.8,5.4,2.8,8.8c0,0.3,0,0.9-0.1,1.5H797
			c0.2,6,3.1,10,9,10c2.2,0,4.9-1,6.8-2.5L814.5,16.2z M810.4,2.6c0-4-2.2-7.4-6.2-7.4c-3.8,0-6.7,2.6-7,7.8h13.2V2.6z"/>
	</g>
	<g id="XMLID_6_">
		<g id="XMLID_52_">
			<polygon id="XMLID_53_" class="st1" points="328.3,-57.8 328.3,32 476.5,32 506.4,67.9 506.4,32 525.3,32 525.3,-57.8 			"/>
		</g>
		<g id="XMLID_48_">
			<polygon id="XMLID_49_" class="st2" points="328.3,-57.8 328.3,32 476.5,32 506.4,67.9 506.4,32 525.3,32 525.3,-57.8 			"/>
		</g>
	</g>
	<g id="XMLID_5_">
		<path id="XMLID_7_" class="st3" d="M402.3,13.2h-13.9l-9.2-29.6l-9.9,29.6h-13.7l-12-47.3l14.7-1.4l6.6,34.1l10.9-33.4h10.6
			l9.7,33.4l7.3-34.1l12,1.4L402.3,13.2z"/>
		<path id="XMLID_9_" class="st3" d="M432.1,14c-5.8,0-10.6-1.4-15.2-4.5l4.4-8c2.6,2.2,5.8,3.4,8.7,3.4c3.3,0,6.1-1.9,6.1-4.7
			c0-2.1-1.1-3.6-2.3-4.8c-1.5-1.6-8.6-7.1-10.6-9.3c-2.9-3.1-4.3-5.6-4.3-9.4c0-7.6,6.9-12.6,16.9-12.6c4.4,0,8.6,1,12.7,3.2
			l-3.8,7.5c-2.7-1.3-4.6-1.8-6.8-1.8c-2.7,0-4.3,1.2-4.3,3c0,1.5,0.8,2.5,1.8,3.5c2.3,2.4,8.2,6.7,10.7,9.5
			c2.6,2.9,4.3,5.8,4.3,10.2C450.6,8.3,443.2,14,432.1,14z"/>
		<path id="XMLID_11_" class="st3" d="M499.7-8.4c0,6.1-0.3,8.6-1.4,11.4c-2.8,7.2-9.8,11-19.7,11c-8.1,0-14.3-2.7-17.8-7.6
			c-2.4-3.4-3-6.2-3-15.4v-25.9h14.3v23.5c0,7,0.3,9.5,1.1,11.5c1.1,2.6,3.2,3.9,6,3.9c3.6,0,6.2-2.1,7.3-5.7
			c0.5-1.7,0.8-5.3,0.8-10v-23.1h12.4V-8.4L499.7-8.4z"/>
	</g>
</g>
</svg>
