<svg id="Layer_1" data-name="Layer 1" xmlns="http://www.w3.org/2000/svg" viewBox="0 0 309.05 39.96"><defs><style>.cls-1{fill:#5e6a71;}.cls-2{fill:#981e32;}.cls-3{fill:#fff;}</style></defs><title>2015-WSU Connections Hrz Abbv-1_RGB</title><path class="cls-1" d="M70.68,9.19C72.61,15.6,74.55,22,76.45,29.25h0.07c1.94-7.33,3.87-13.89,5.84-20.41L85,9.32,77.64,33H74.72c-1.9-6.31-3.77-12.63-5.64-19.62H69c-1.87,7-3.8,13.31-5.7,19.62H60.39l-7-23.43,3.12-.68c1.87,6.52,3.73,13.07,5.57,20.41h0.07C64.06,22,66,15.6,68,9.19h2.72Z" transform="translate(-1 -2.09)"/><path class="cls-1" d="M98.07,12.85A7.58,7.58,0,0,0,94,11.16c-2.38,0-3.7,1.39-3.7,3.23s1.46,3,4.52,5.16c3.26,2.38,5.16,4.55,5.16,7.6,0,3.77-3.56,6.21-7.37,6.21a10,10,0,0,1-6.69-2.48l1.46-2A8.59,8.59,0,0,0,92.51,31c2.34,0,4.14-1.26,4.14-3.9,0-3-3.56-4.92-5.5-6.35S87,17.74,87,14.38c0-3.19,3.09-5.6,6.79-5.6a7.68,7.68,0,0,1,5.87,2.38Z" transform="translate(-1 -2.09)"/><path class="cls-1" d="M106.7,9.19v14.4c0,4.92,1.83,7.5,6.08,7.5,4.45,0,5.94-3.53,5.94-6.93v-15h3.09v15c0,5.33-3.29,9.13-9,9.13-6.69,0-9.37-3.53-9.37-9.64V9.19h3.29Z" transform="translate(-1 -2.09)"/><path class="cls-1" d="M153.17,13.23A10.92,10.92,0,0,0,147,11.16c-5.87,0-9.34,4.21-9.34,9.78,0,6,4.14,10,9.34,10a10.61,10.61,0,0,0,6-1.77l1.29,2a14,14,0,0,1-7.47,2.17C138.3,33.36,134,27.55,134,21c0-6,4.69-12.22,13.21-12.22a11.6,11.6,0,0,1,7.33,2.41Z" transform="translate(-1 -2.09)"/><path class="cls-1" d="M155.24,24.26a8.37,8.37,0,1,1,16.74,0c0,5.26-3.36,9.1-8.39,9.1S155.24,29.52,155.24,24.26Zm3.29,0c0,3.19,1.09,6.93,5.06,6.93s5.09-3.73,5.09-6.93-1.26-6.52-5.09-6.52S158.54,21.2,158.54,24.26Z" transform="translate(-1 -2.09)"/><path class="cls-1" d="M178,18.08a8.48,8.48,0,0,1,5.81-2.51c3.9,0,6,2.17,6,6.45V33h-3.06V22.66c0-3.19-1.36-4.85-4.11-4.85a4.54,4.54,0,0,0-4.62,4.92V33H175V16h3v2.11Z" transform="translate(-1 -2.09)"/><path class="cls-1" d="M197,18.08a8.48,8.48,0,0,1,5.81-2.51c3.9,0,6,2.17,6,6.45V33h-3.06V22.66c0-3.19-1.36-4.85-4.11-4.85a4.54,4.54,0,0,0-4.62,4.92V33H194V16h3v2.11Z" transform="translate(-1 -2.09)"/><path class="cls-1" d="M215,24.67c0,3.4,2.38,6.52,5.74,6.52a8.48,8.48,0,0,0,4.65-1.46l0.88,1.66a10.22,10.22,0,0,1-5.64,2c-5.3,0-8.79-3.26-8.79-9.23s4.21-8.56,8-8.56c5.16,0,6.89,4.65,6.55,9.1H215Zm8.66-2c0-2.65-1.12-4.89-3.8-4.89-3.26,0-4.55,2.72-4.65,4.89h8.45Z" transform="translate(-1 -2.09)"/><path class="cls-1" d="M242.43,31.59a9.41,9.41,0,0,1-5.13,1.77c-8,0-9.06-6.59-9.06-8.93,0-4.24,2.82-8.86,9.2-8.86A7.4,7.4,0,0,1,242,17l-1,1.73a8.33,8.33,0,0,0-3.5-.88c-2.78,0-5.94,1.83-5.94,6.45,0,3.53,1.8,6.86,5.91,6.86a7.45,7.45,0,0,0,4.14-1.22Z" transform="translate(-1 -2.09)"/><path class="cls-1" d="M248.64,16h4.45v1.77h-4.45v9.61c0,2.38.47,3.8,2.34,3.8a4.54,4.54,0,0,0,2.34-.58l0.75,1.7a6.6,6.6,0,0,1-3.46,1.09c-3.4,0-5-2-5-5.43V17.74h-2.38V16h2.38V11.9l3.06-1V16Z" transform="translate(-1 -2.09)"/><path class="cls-1" d="M255.32,10.37a1.94,1.94,0,0,1,3.87,0A1.94,1.94,0,1,1,255.32,10.37Zm3.46,5.6V33h-3.06V16h3.06Z" transform="translate(-1 -2.09)"/><path class="cls-1" d="M261.81,24.26a8.37,8.37,0,1,1,16.74,0c0,5.26-3.36,9.1-8.39,9.1S261.81,29.52,261.81,24.26Zm3.29,0c0,3.19,1.09,6.93,5.06,6.93s5.09-3.73,5.09-6.93-1.26-6.52-5.09-6.52S265.1,21.2,265.1,24.26Z" transform="translate(-1 -2.09)"/><path class="cls-1" d="M284.59,18.08a8.48,8.48,0,0,1,5.81-2.51c3.9,0,6,2.17,6,6.45V33h-3.06V22.66c0-3.19-1.36-4.85-4.11-4.85a4.54,4.54,0,0,0-4.62,4.92V33h-3.06V16h3v2.11Z" transform="translate(-1 -2.09)"/><path class="cls-1" d="M308.56,18.69a5.49,5.49,0,0,0-3.12-1.09c-1.09,0-2.48.51-2.48,1.94s1.56,2.14,3.5,3.6c2.17,1.66,3.6,3.06,3.6,5.43,0,2.85-2.82,4.79-5.94,4.79a7.36,7.36,0,0,1-5.23-2.14l1.49-1.73a5.69,5.69,0,0,0,3.67,1.7c1.43,0,2.89-.75,2.89-2.41,0-2-1.77-2.82-3.36-4-1.94-1.39-3.63-2.55-3.63-4.85,0-2.68,2.65-4.38,5.64-4.38a6.2,6.2,0,0,1,4.18,1.56Z" transform="translate(-1 -2.09)"/><rect class="cls-1" x="41.49" width="0.72" height="39.96"/><path class="cls-1" d="M21.43,35.5L16,39.34l-5.4-3.84c-3.84-2.62-7.13-4.87-8.85-8.29C3.21,33.61,9.48,36,16,41.14,22.6,36,28.86,33.61,30.28,27.21,28.56,30.63,25.27,32.88,21.43,35.5Z" transform="translate(-1 -2.09)"/><path class="cls-2" d="M1,4.2V4.87a0.77,0.77,0,0,1,.6.89V21.23c0,8.6,7,10.88,14.4,16.66,7.39-5.78,14.4-8.06,14.4-16.66V5.58A0.69,0.69,0,0,1,31,4.87V4.2H1Z" transform="translate(-1 -2.09)"/><path class="cls-3" d="M19,29.39a4,4,0,0,0,1.85-2.49,4.92,4.92,0,0,1,.43,2.45A15.45,15.45,0,0,1,19,29.39Z" transform="translate(-1 -2.09)"/><path class="cls-3" d="M25.38,18.07s0.73,4-1.86,4.11-3.67-3.62-3.67-3.62,0.6,7.33,4.1,6.85C27.9,24.87,25.38,18.07,25.38,18.07Z" transform="translate(-1 -2.09)"/><path class="cls-3" d="M6.39,28.44h0c2.92-.66,5.15-4.07,5.81-5.43l0.42-.87,0.25,0.93a10.23,10.23,0,0,1,.28,2.42c0,0.15,0,.3,0,0.46a2.75,2.75,0,0,0,2.17-.63c0.64-.66.83-1.92,0.59-3.84-0.12-.92-0.46-2.38-0.76-3.67-0.15-.66-0.3-1.28-0.39-1.72a6.92,6.92,0,0,1,.82-5.54,4.79,4.79,0,0,1,.35-0.43,13.52,13.52,0,0,0-5.46,3.48L11.7,15l0.5-.47a8.15,8.15,0,0,1,.13,3.4,14.18,14.18,0,0,0-1.41-1.78l0.33-.56-1.11-1.29L10,14.17a12.15,12.15,0,0,0-1.8,3.4l1,0.88L9.75,19l0.19-.54A4.27,4.27,0,0,1,10,22.18a6.86,6.86,0,0,0-.85-1.64l0.27-.89L8,18.35C6.51,23,4.52,24.53,4.52,24.53a31.47,31.47,0,0,0,3.36-.79A9.81,9.81,0,0,1,6.39,28.44Z" transform="translate(-1 -2.09)"/><path class="cls-3" d="M28.19,11.6l-3.45.15A3.72,3.72,0,0,1,24.55,13a4.72,4.72,0,0,1,.1,2.17,5,5,0,0,0-1-1.72c-3.17-1.41-4.95,1.77-4.76,3.83,0.16,1.69.77,3.93,1.25,7.44,0.4,3-1.09,4.23-2.82,4.53l-0.11,0h0a5.82,5.82,0,0,1-.89,0H16.14l-0.4,0a60.46,60.46,0,0,0-7.44-.81,12.63,12.63,0,0,0,4-4.21,10.33,10.33,0,0,1,.08,1.29c0,0.24,0,.5,0,0.76l0,0.36,0.36,0a3.65,3.65,0,0,0,3.1-.83c0.81-.84,1.06-2.24.78-4.42-0.12-1-.46-2.43-0.77-3.74-0.15-.65-0.29-1.27-0.38-1.7a6.23,6.23,0,0,1,.71-5A3.7,3.7,0,0,1,18,9.56h0l1.18-3.61h0.37L18.8,9.42l0.56-.09,1-3.2h0.37l-0.67,3.1c1.05-.14,2.19-0.24,3.46-0.33a1.51,1.51,0,0,1,.62.65l3.32-1L27.6,8.88l-3.17,1.23c0,0.07.05,0.13,0.07,0.2L28,9.88,28,10.25l-3.37.67,0,0.19,3.5,0.11V11.6Zm-10,1.55a4.93,4.93,0,0,1,3-.78c0.28,0,.52-0.05.22-0.21a4.54,4.54,0,0,0-3.45.18,2.19,2.19,0,0,0-.89,2.11A4.05,4.05,0,0,1,18.19,13.15Z" transform="translate(-1 -2.09)"/></svg>