<?xml version="1.0" encoding="utf-8"?>
<!-- Generator: Adobe Illustrator 19.2.1, SVG Export Plug-In . SVG Version: 6.00 Build 0)  -->
<svg version="1.1" id="Layer_1" xmlns="http://www.w3.org/2000/svg" xmlns:xlink="http://www.w3.org/1999/xlink" x="0px" y="0px"
	 viewBox="0 0 97 108" style="enable-background:new 0 0 97 108;" xml:space="preserve">
<style type="text/css">
	.st0{fill:#5E6A71;}
	.st1{fill:#981E32;}
	.st2{fill:#FFFFFF;}
</style>
<g>
	<path class="st0" d="M57.7,54.1l-9.1,6.5l-9.1-6.5c-6.5-4.4-12-8.2-14.9-14c2.4,10.8,13,14.8,24,23.5c11.1-8.7,21.6-12.7,24-23.5
		C69.8,45.9,64.2,49.7,57.7,54.1z"/>
	<path class="st1" d="M23.3,1.3v1.1c0.7,0.2,0.9,0.5,1,1.5l0,26.1c0,14.5,11.8,18.4,24.3,28.1C61.1,48.4,72.9,44.6,72.9,30l0-26.4
		c0.1-0.8,0.3-1,1-1.2V1.3L23.3,1.3z"/>
	<g>
		<g>
			<g>
				<path class="st2" d="M53.6,43.8c0,0,2-0.9,3.1-4.2c1,2,0.7,4.1,0.7,4.1C56.5,43.9,53.6,43.8,53.6,43.8z"/>
				<path class="st2" d="M64.4,24.7c0,0,1.2,6.7-3.1,6.9c-4.2,0.2-6.2-6.1-6.2-6.1s1,12.4,6.9,11.6C68.6,36.2,64.4,24.7,64.4,24.7z"
					/>
			</g>
		</g>
		<path class="st2" d="M32.3,42.2C32.3,42.2,32.3,42.2,32.3,42.2c4.9-1.1,8.7-6.9,9.8-9.2l0.7-1.5l0.4,1.6c0,0.1,0.5,1.8,0.5,4.1
			c0,0.3,0,0.5,0,0.8c1.7,0.1,2.9-0.3,3.7-1.1c1.1-1.1,1.4-3.2,1-6.5c-0.2-1.5-0.8-4-1.3-6.2c-0.3-1.1-0.5-2.2-0.7-2.9
			c-0.9-4.8,0.2-7.7,1.4-9.4c0.2-0.3,0.4-0.5,0.6-0.7c-3.4,1.1-6.3,2.9-9.2,5.9l2.1,2.4l0.8-0.8c0.8,3,0.2,5.7,0.2,5.7
			c-1.1-1.7-2.4-3-2.4-3l0.6-0.9l-1.9-2.2l-0.2-0.2c-2.3,3.2-3,5.7-3,5.7l1.6,1.5l0.9,0.9l0.3-0.9c1.8,3.3,0.2,6.3,0.2,6.3
			c-0.3-1.1-1.4-2.8-1.4-2.8l0.5-1.5l-2.4-2.2c-2.5,7.9-5.9,10.4-5.9,10.4s3.7-0.7,5.7-1.3C34.9,34.3,34.8,38.4,32.3,42.2z"/>
		<path class="st2" d="M69.1,13.8L63.3,14c0,0.7-0.1,1.4-0.3,2c0.5,2.4,0.2,3.7,0.2,3.7c-1-2.3-1.7-2.9-1.7-2.9
			c-5.3-2.4-8.3,3-8,6.5c0.3,2.8,1.3,6.6,2.1,12.6c0.7,5-1.8,7.1-4.8,7.6c-0.1,0-0.1,0-0.2,0c0,0,0,0,0,0c-0.5,0.1-1,0.1-1.5,0.1
			c0,0,0,0-0.1,0c-0.1,0-0.1,0-0.2,0c-0.2,0-0.5,0-0.7-0.1c-2.3-0.3-7.3-1.2-12.6-1.4c3.1-1.8,5.5-4.9,6.8-7.1
			c0.1,0.6,0.1,1.4,0.1,2.2c0,0.4,0,0.8-0.1,1.3l0,0.6l0.6,0.1c2.4,0.2,4.1-0.3,5.2-1.4c1.4-1.4,1.8-3.8,1.3-7.5
			c-0.2-1.6-0.8-4.1-1.3-6.3c-0.3-1.1-0.5-2.1-0.6-2.9c-0.9-4.3,0.2-7,1.2-8.4c0.8-1.1,1.9-2,3.1-2.4c0,0,0,0,0.1,0l2-6.1h0.6
			l-1.3,5.9c0.3-0.1,0.6-0.1,0.9-0.2l1.7-5.4h0.6l-1.1,5.2c1.8-0.2,3.7-0.4,5.8-0.6c0.3,0.1,0.7,0.5,1,1.1l5.6-1.7l0.2,0.6l-5.4,2.1
			c0,0.1,0.1,0.2,0.1,0.3l5.9-0.7l0.1,0.6l-5.7,1.1c0,0.1,0,0.2,0.1,0.3l5.9,0.2L69.1,13.8z M52.3,16.4c1.2-0.8,3.2-1.5,5-1.3
			c0.5,0,0.9-0.1,0.4-0.4C56.3,14,53,14.2,51.9,15c-1.9,1.3-1.5,3.5-1.5,3.6C50.7,17.9,51.4,17,52.3,16.4z"/>
	</g>
</g>
<rect x="3.8" y="71.3" class="st0" width="89.6" height="0.8"/>
<g>
	<path class="st0" d="M42.1,79.2c0.9,2.8,1.7,5.7,2.5,8.9h0c0.9-3.2,1.7-6.1,2.6-9l1.2,0.2l-3.3,10.4h-1.3c-0.8-2.8-1.7-5.6-2.5-8.7
		h0c-0.8,3.1-1.7,5.9-2.5,8.7h-1.3l-3.1-10.3l1.4-0.3c0.8,2.9,1.7,5.8,2.5,9h0c0.8-3.2,1.7-6,2.6-8.9H42.1z"/>
	<path class="st0" d="M54.2,80.8c-0.5-0.4-1.2-0.8-1.8-0.8c-1.1,0-1.6,0.6-1.6,1.4c0,0.8,0.6,1.3,2,2.3c1.4,1,2.3,2,2.3,3.4
		c0,1.7-1.6,2.7-3.3,2.7c-1,0-2.2-0.4-3-1.1l0.6-0.9c0.6,0.4,1.3,0.9,2.3,0.9c1,0,1.8-0.6,1.8-1.7c0-1.3-1.6-2.2-2.4-2.8
		c-0.9-0.7-1.8-1.3-1.8-2.8c0-1.4,1.4-2.5,3-2.5c1.1,0,2,0.4,2.6,1L54.2,80.8z"/>
	<path class="st0" d="M58,79.2v6.4c0,2.2,0.8,3.3,2.7,3.3c2,0,2.6-1.6,2.6-3.1v-6.6h1.4v6.6c0,2.4-1.5,4-4,4c-3,0-4.1-1.6-4.1-4.3
		v-6.4H58z"/>
	<path class="st0" d="M17.1,96c-0.5-0.4-1.6-0.9-2.7-0.9c-2.6,0-4.1,1.9-4.1,4.3c0,2.7,1.8,4.4,4.1,4.4c1.1,0,2-0.4,2.7-0.8l0.6,0.9
		c-0.7,0.5-2,1-3.3,1c-3.8,0-5.7-2.6-5.7-5.5c0-2.6,2.1-5.4,5.8-5.4c1.5,0,2.5,0.5,3.2,1.1L17.1,96z"/>
	<path class="st0" d="M18.4,100.8c0-2.4,1.8-3.8,3.7-3.8c1.9,0,3.7,1.4,3.7,3.8c0,2.3-1.5,4-3.7,4C19.9,104.9,18.4,103.2,18.4,100.8
		z M19.8,100.8c0,1.4,0.5,3.1,2.2,3.1c1.8,0,2.3-1.6,2.3-3.1c0-1.4-0.6-2.9-2.3-2.9C20.4,98,19.8,99.5,19.8,100.8z"/>
	<path class="st0" d="M28.7,98.1c0.7-0.8,1.8-1.1,2.6-1.1c1.7,0,2.7,1,2.7,2.8v4.8h-1.4v-4.5c0-1.4-0.6-2.1-1.8-2.1
		c-1.1,0-2,0.7-2,2.2v4.5h-1.3v-7.5h1.3V98.1z"/>
	<path class="st0" d="M37.1,98.1c0.7-0.8,1.8-1.1,2.6-1.1c1.7,0,2.7,1,2.7,2.8v4.8H41v-4.5c0-1.4-0.6-2.1-1.8-2.1
		c-1.1,0-2,0.7-2,2.2v4.5h-1.3v-7.5h1.3V98.1z"/>
	<path class="st0" d="M45.2,101c0,1.5,1,2.9,2.5,2.9c0.7,0,1.5-0.3,2.1-0.6l0.4,0.7c-0.8,0.6-1.7,0.9-2.5,0.9
		c-2.3,0-3.9-1.4-3.9-4.1c0-2.6,1.9-3.8,3.6-3.8c2.3,0,3,2.1,2.9,4H45.2z M49,100.1c0-1.2-0.5-2.2-1.7-2.2c-1.4,0-2,1.2-2.1,2.2H49z
		"/>
	<path class="st0" d="M57.6,104.1c-0.7,0.5-1.6,0.8-2.3,0.8c-3.6,0-4-2.9-4-3.9c0-1.9,1.2-3.9,4.1-3.9c0.8,0,1.5,0.2,2,0.6L57,98.4
		c-0.4-0.2-1-0.4-1.5-0.4c-1.2,0-2.6,0.8-2.6,2.9c0,1.6,0.8,3,2.6,3c0.6,0,1.2-0.2,1.8-0.5L57.6,104.1z"/>
	<path class="st0" d="M60.6,97.2h2V98h-2v4.2c0,1.1,0.2,1.7,1,1.7c0.5,0,0.8-0.1,1-0.3l0.3,0.8c-0.5,0.3-1,0.5-1.5,0.5
		c-1.5,0-2.2-0.9-2.2-2.4V98h-1v-0.8h1v-1.8l1.3-0.5V97.2z"/>
	<path class="st0" d="M63.9,94.7c0-0.4,0.3-0.8,0.9-0.8s0.9,0.4,0.9,0.8c0,0.4-0.2,0.9-0.9,0.9S63.9,95.1,63.9,94.7z M65.5,97.2v7.5
		h-1.3v-7.5H65.5z"/>
	<path class="st0" d="M67,100.8c0-2.4,1.8-3.8,3.7-3.8c1.9,0,3.7,1.4,3.7,3.8c0,2.3-1.5,4-3.7,4C68.5,104.9,67,103.2,67,100.8z
		 M68.5,100.8c0,1.4,0.5,3.1,2.2,3.1c1.8,0,2.3-1.6,2.3-3.1c0-1.4-0.6-2.9-2.3-2.9C69,98,68.5,99.5,68.5,100.8z"/>
	<path class="st0" d="M77.3,98.1c0.7-0.8,1.8-1.1,2.6-1.1c1.7,0,2.7,1,2.7,2.8v4.8h-1.4v-4.5c0-1.4-0.6-2.1-1.8-2.1
		c-1.1,0-2,0.7-2,2.2v4.5H76v-7.5h1.3V98.1z"/>
	<path class="st0" d="M88.1,98.4c-0.5-0.4-1-0.5-1.4-0.5c-0.5,0-1.1,0.2-1.1,0.9s0.7,0.9,1.5,1.6c1,0.7,1.6,1.3,1.6,2.4
		c0,1.3-1.2,2.1-2.6,2.1c-0.9,0-1.8-0.4-2.3-0.9l0.7-0.8c0.4,0.4,1,0.8,1.6,0.8c0.6,0,1.3-0.3,1.3-1.1c0-0.9-0.8-1.2-1.5-1.8
		c-0.9-0.6-1.6-1.1-1.6-2.1c0-1.2,1.2-1.9,2.5-1.9c0.7,0,1.5,0.3,1.8,0.7L88.1,98.4z"/>
</g>
</svg>
